<?xml version="1.0" standalone="no"?>
<!DOCTYPE svg PUBLIC "-//W3C//DTD SVG 20010904//EN"
 "http://www.w3.org/TR/2001/REC-SVG-20010904/DTD/svg10.dtd">
<svg version="1.0" xmlns="http://www.w3.org/2000/svg"
 width="1200.000000pt" height="1200.000000pt" viewBox="0 0 1200.000000 1200.000000"
 preserveAspectRatio="xMidYMid meet">
<metadata>
Created by potrace 1.14, written by Peter Selinger 2001-2017
</metadata>
<g transform="translate(0.000000,1200.000000) scale(0.100000,-0.100000)"
fill="#000000" stroke="none">
<path d="M2819 11988 c-3 -7 -4 -627 -4 -1377 1 -1251 2 -1364 17 -1367 9 -1
65 -5 125 -8 135 -8 270 -28 398 -58 28 -7 52 -13 55 -13 36 -7 77 -19 85 -23
6 -4 15 -7 20 -8 17 -3 178 -61 230 -84 126 -54 355 -182 363 -202 2 -4 8 -8
13 -8 10 0 142 -96 194 -140 149 -127 249 -234 388 -412 38 -48 127 -186 127
-196 0 -6 4 -12 8 -14 15 -6 172 -335 172 -361 0 -7 4 -17 8 -22 5 -6 16 -35
25 -65 39 -128 47 -156 51 -180 2 -14 7 -32 10 -40 3 -8 8 -32 11 -54 3 -21 7
-41 9 -45 2 -3 7 -33 11 -66 4 -33 9 -73 12 -90 9 -56 11 -430 2 -495 -26
-191 -26 -189 -55 -315 -3 -11 -7 -31 -10 -44 -7 -35 -83 -260 -101 -301 -44
-99 -116 -242 -148 -294 -19 -32 -35 -62 -35 -66 0 -5 -3 -10 -7 -12 -9 -3
-73 -93 -73 -101 0 -3 -9 -16 -20 -29 -10 -12 -45 -54 -76 -93 -53 -64 -252
-267 -301 -307 -12 -9 -64 -49 -117 -88 -53 -40 -93 -77 -89 -83 6 -9 29 -104
37 -152 2 -11 9 -39 15 -63 7 -23 9 -46 6 -51 -3 -5 -1 -11 4 -13 5 -1 12 -21
15 -43 4 -22 13 -64 21 -95 8 -30 16 -67 19 -82 4 -16 8 -38 11 -50 3 -13 7
-32 9 -43 2 -11 9 -38 14 -60 6 -22 13 -51 16 -65 2 -14 9 -45 15 -70 7 -25
13 -54 16 -65 5 -29 13 -64 19 -83 3 -9 7 -28 10 -42 2 -14 9 -45 15 -70 7
-25 14 -56 16 -70 5 -25 12 -56 22 -95 12 -48 24 -102 29 -130 3 -16 12 -55
20 -85 9 -30 17 -70 20 -89 2 -19 7 -37 9 -42 3 -4 10 -31 16 -61 6 -29 15
-71 20 -93 5 -22 12 -51 15 -65 3 -14 10 -43 16 -65 5 -22 12 -49 14 -60 1
-11 7 -38 13 -60 5 -22 12 -51 14 -65 3 -14 10 -45 17 -70 7 -25 14 -54 16
-65 2 -11 8 -40 13 -65 6 -25 13 -55 15 -68 3 -13 7 -31 10 -40 3 -9 7 -28 10
-42 3 -14 8 -36 11 -50 3 -14 8 -36 11 -50 3 -14 8 -34 11 -45 3 -11 8 -29 10
-40 5 -30 31 -140 33 -140 1 0 3 -9 5 -20 4 -28 10 -60 29 -140 9 -38 19 -79
22 -90 2 -11 11 -51 20 -90 8 -38 18 -79 21 -90 11 -46 31 -133 38 -170 2 -11
5 -27 8 -35 3 -8 8 -28 12 -44 5 -25 4 -28 -14 -23 -12 3 -21 1 -21 -4 0 -4
-10 -5 -22 0 -12 4 -37 5 -55 1 -18 -5 -33 -4 -33 1 0 5 -11 4 -25 -1 -13 -5
-26 -6 -29 -1 -3 4 -28 5 -56 1 -27 -4 -50 -3 -50 2 0 4 -11 3 -25 -2 -13 -5
-27 -6 -29 -1 -3 4 -26 5 -51 1 -25 -4 -47 -4 -49 -1 -5 8 -64 6 -72 -2 -4 -3
-16 -1 -27 5 -16 8 -22 8 -25 0 -2 -8 -9 -9 -22 -2 -10 6 -21 7 -23 3 -6 -9
-64 -9 -73 0 -3 3 -17 2 -30 -3 -13 -5 -25 -6 -28 -2 -5 9 -82 6 -98 -4 -7 -4
-8 -3 -4 4 5 9 1 9 -16 3 -14 -5 -31 -5 -40 0 -11 6 -19 5 -23 -1 -5 -8 -11
-8 -20 0 -9 7 -15 8 -19 1 -4 -6 -16 -7 -28 -2 -12 4 -39 5 -60 1 -21 -4 -38
-4 -38 1 0 5 -11 4 -25 -1 -13 -5 -26 -6 -29 -1 -3 4 -28 5 -56 1 -27 -4 -50
-3 -50 2 0 4 -11 3 -25 -2 -13 -5 -27 -6 -29 -1 -3 4 -26 5 -51 1 -25 -4 -47
-4 -49 -1 -5 8 -64 6 -72 -2 -4 -3 -16 -1 -27 5 -16 8 -22 8 -25 0 -2 -8 -9
-9 -22 -2 -10 6 -21 7 -23 3 -6 -9 -64 -9 -73 0 -3 3 -17 2 -30 -3 -13 -5 -25
-6 -28 -2 -5 9 -82 6 -98 -4 -7 -4 -8 -3 -4 4 5 9 1 9 -16 3 -14 -5 -31 -5
-40 0 -11 6 -19 5 -23 -1 -5 -8 -11 -8 -20 0 -9 7 -15 8 -19 1 -4 -6 -16 -7
-29 -2 -12 5 -31 5 -42 1 -11 -4 -27 -4 -36 1 -9 5 -19 5 -23 2 -5 -5 -9 -345
-7 -508 1 -23 0 -143 0 -165 -1 -51 0 -789 1 -805 1 -11 2 -26 2 -33 1 -11
224 -13 1262 -9 694 3 1281 7 1306 10 25 3 81 8 125 12 44 3 91 8 105 11 36 6
131 18 158 18 12 1 22 3 22 6 0 3 8 6 18 6 30 1 105 12 156 24 27 6 61 12 75
15 36 5 82 15 103 21 10 3 28 7 40 10 45 8 103 22 103 24 0 1 7 3 15 5 8 1 42
10 75 19 33 9 67 19 75 21 60 15 271 85 310 102 8 3 20 7 25 9 37 9 275 112
358 154 32 17 65 30 73 30 8 0 14 4 14 8 0 4 16 14 35 21 19 7 35 17 35 22 0
5 6 9 14 9 31 0 432 246 505 309 13 12 27 21 31 21 3 0 15 8 26 18 10 9 53 42
94 74 41 31 86 66 100 78 14 12 45 38 68 58 213 181 458 438 653 687 126 160
349 490 349 515 0 6 4 10 9 10 5 0 12 8 15 18 3 9 12 26 19 37 37 61 110 194
157 290 30 61 58 112 61 115 4 3 10 16 14 29 4 14 27 67 52 118 64 135 232
571 248 643 2 8 9 29 15 45 6 17 13 37 15 45 2 8 20 71 40 140 31 108 99 373
111 435 8 41 28 138 30 148 1 4 2 8 3 10 2 1 4 14 6 30 2 15 8 51 14 80 6 28
13 72 16 97 4 24 8 47 10 50 2 3 6 30 9 60 3 30 8 66 11 80 7 35 15 91 21 146
3 27 7 67 10 89 2 22 7 63 9 90 3 28 7 75 11 105 3 30 7 84 10 120 2 36 7 99
10 140 8 103 13 933 6 944 -3 6 -7 37 -8 70 -3 84 -13 214 -29 371 -3 28 -7
73 -10 100 -3 28 -7 61 -9 75 -2 14 -7 48 -10 75 -10 77 -26 188 -30 210 -2 6
-6 33 -10 60 -4 28 -10 61 -13 75 -2 14 -11 57 -18 95 -8 39 -16 79 -19 90 -2
11 -12 56 -21 100 -38 185 -118 476 -193 700 -25 77 -47 142 -47 145 -1 3 -7
19 -14 35 -7 17 -14 37 -16 45 -22 96 -350 806 -377 818 -5 2 -8 8 -8 12 0 5
-31 62 -70 126 -38 65 -70 121 -70 126 0 4 -4 8 -8 8 -5 0 -19 20 -32 45 -13
25 -27 45 -32 45 -4 0 -8 4 -8 10 0 8 -77 128 -90 140 -3 3 -34 43 -67 90 -34
47 -72 97 -85 112 -46 53 -58 68 -53 68 3 0 -10 16 -30 35 -19 20 -35 38 -35
41 0 3 -6 11 -12 18 -7 8 -51 55 -98 106 -176 193 -342 349 -526 495 -65 52
-123 98 -129 103 -5 4 -32 23 -60 42 -27 19 -55 39 -62 45 -36 31 -43 35 -43
28 0 -4 -4 -3 -8 3 -10 14 -101 74 -113 74 -5 0 -9 5 -9 10 0 6 -4 10 -8 10
-5 0 -47 22 -93 50 -120 71 -118 70 -126 71 -5 1 -19 9 -33 18 -14 9 -38 23
-55 31 -16 8 -42 23 -57 33 -16 10 -28 16 -28 12 0 -3 -19 5 -42 18 -36 19
-155 72 -323 142 -25 11 -66 25 -85 30 -3 1 -12 5 -20 8 -31 13 -188 67 -206
70 -11 2 -26 7 -34 10 -42 16 -290 82 -345 91 -11 2 -40 8 -64 14 -25 6 -48 9
-52 6 -4 -2 -10 0 -14 5 -3 6 -12 8 -19 5 -8 -3 -17 0 -21 5 -3 6 -10 9 -15 6
-5 -3 -27 -2 -47 4 -21 5 -57 12 -80 15 -24 3 -60 8 -80 11 -151 21 -185 25
-258 30 -38 3 -90 8 -115 11 -25 4 -613 8 -1306 11 -1037 4 -1262 2 -1265 -9z"/>
<path d="M2723 7788 c-118 -13 -294 -69 -331 -105 -8 -7 -17 -11 -22 -8 -5 3
-10 2 -12 -2 -1 -5 -28 -24 -58 -44 -51 -33 -190 -165 -190 -180 0 -3 -10 -18
-23 -32 -12 -15 -33 -48 -47 -74 -14 -26 -30 -55 -36 -63 -6 -8 -16 -35 -23
-59 -7 -25 -18 -56 -23 -70 -6 -14 -12 -33 -13 -41 -2 -8 -7 -33 -11 -55 -10
-48 -11 -254 -2 -310 4 -22 12 -56 18 -75 6 -19 13 -45 16 -58 17 -85 123
-253 221 -350 231 -228 540 -310 871 -229 40 10 97 31 107 39 5 4 17 8 27 8
10 0 18 4 18 8 0 4 12 13 28 20 99 44 214 144 303 262 146 194 207 489 150
720 -7 25 -14 55 -17 68 -7 33 -64 162 -86 194 -10 14 -18 31 -18 37 0 6 -4
11 -8 11 -4 0 -15 12 -24 28 -25 42 -126 143 -192 192 -98 71 -254 142 -346
154 -19 3 -49 8 -67 11 -50 9 -142 11 -210 3z"/>
</g>
</svg>
