<svg xmlns="http://www.w3.org/2000/svg" viewBox="0 0 50 37"><defs><style>.cls-1{fill:#666;}.cls-2{fill:#d0000b;}</style></defs><g id="Слой_2" data-name="Слой 2"><g id="granit_dveri" data-name="granit dveri"><path class="cls-1" d="M0,13.23a8.59,8.59,0,0,1,.34-1,1.89,1.89,0,0,1,1.73-1.13c1.52,0,3,0,4.56,0a1.42,1.42,0,0,0,.85-.25c.31-.21.64-.38.94-.6a.44.44,0,0,1,.59,0l9,5.94,6.74,4.46a.44.44,0,0,1,.18.33q0,8,0,15.94l0,.07-.73-.44L8.73,27c-.48-.3-1-.61-1.44-.9a1,1,0,0,0-.47-.13H2.49a2.2,2.2,0,0,1-2.44-2l0-.1Z"/><path class="cls-2" d="M50,32.07l-1.06,1.61-.18.28L4.45,4.17,5.68,2.22,8.15,3.88l14,9.41,13.39,9,10.24,6.88L50,32Z"/><path class="cls-1" d="M15.18,6.07,24.92,0V12.5Z"/><path class="cls-1" d="M46.44,26.7c-.62-.41-1.23-.8-1.83-1.22,0,0,0-.18,0-.27.21-1.27.48-2.52.62-3.8a31.08,31.08,0,0,0,.07-4.92A22.72,22.72,0,0,0,44,9.91,9.75,9.75,0,0,0,41.3,5.72a1.31,1.31,0,0,1-.52-1.21c0-.72,0-1.43,0-2.24.37.26.69.46,1,.69a13.32,13.32,0,0,1,3.67,4.77,21.5,21.5,0,0,1,1.9,6.68,31.46,31.46,0,0,1,.21,5.9,25.72,25.72,0,0,1-1.06,6.29S46.47,26.65,46.44,26.7Z"/><path class="cls-1" d="M34,4.61c.28.19.51.34.73.51A15.42,15.42,0,0,1,40.29,14a19.26,19.26,0,0,1,.47,5.71c-.06,1-.22,2-.34,3l-.45-.3c-.48-.31-1-.64-1.45-.94a.34.34,0,0,1-.17-.39,18.55,18.55,0,0,0-.58-7.84A11.56,11.56,0,0,0,34.51,7.9,1.35,1.35,0,0,1,34,6.68C34,6,34,5.35,34,4.61Z"/><path class="cls-1" d="M27.2,7A12.41,12.41,0,0,1,34,18.47l-.4-.26c-.58-.39-1.17-.76-1.74-1.16a.56.56,0,0,1-.21-.35,10.23,10.23,0,0,0-2-5.16,7.41,7.41,0,0,0-2.25-2c-.06,0-.15-.11-.15-.17C27.19,8.6,27.2,7.78,27.2,7Z"/><path class="cls-1" d="M27.19,30.1c0-.86,0-1.65,0-2.44a.31.31,0,0,1,.11-.2,7.9,7.9,0,0,0,3-3,.4.4,0,0,0,.07-.09l1.78,1.17A12.19,12.19,0,0,1,27.19,30.1Z"/><path class="cls-1" d="M35.72,27.89l1.79,1.18A13.07,13.07,0,0,1,34,32.39c0-1,0-1.9,0-2.82a.25.25,0,0,1,.08-.16Z"/><path class="cls-1" d="M43.13,32.78a9.76,9.76,0,0,1-2.34,1.94v-.55c0-.76,0-1.52,0-2.29a.33.33,0,0,1,.23-.36.36.36,0,0,1,.28.06Z"/></g></g></svg>