<svg xmlns="http://www.w3.org/2000/svg" viewBox="0 0 74 56"><defs><style>.cls-1{fill:#231f20;}.cls-2{fill:none;}</style></defs><g id="Слой_2" data-name="Слой 2"><g id="Слой_1-2" data-name="Слой 1"><path class="cls-1" d="M3.18,41.51a1,1,0,0,1-.32.22.84.84,0,0,1-.42.09,1.26,1.26,0,0,1-.67-.15,1.39,1.39,0,0,1-.44-.43,1.54,1.54,0,0,1-.23-.6A4.08,4.08,0,0,1,1,39.93a2.46,2.46,0,0,1,.09-.74,1.81,1.81,0,0,1,.26-.56,1.33,1.33,0,0,1,.43-.35,1.15,1.15,0,0,1,.55-.14,1,1,0,0,1,.49.12.5.5,0,0,1,.27.24h0V36.92h1V38.5h0a.59.59,0,0,1,.27-.24,1,1,0,0,1,.49-.12,1.16,1.16,0,0,1,.56.14,1.11,1.11,0,0,1,.42.35,1.82,1.82,0,0,1,.27.56,2.46,2.46,0,0,1,.09.74,3.42,3.42,0,0,1-.07.71,1.54,1.54,0,0,1-.24.6,1.36,1.36,0,0,1-.43.43,1.22,1.22,0,0,1-.66.15,1,1,0,0,1-.43-.09.82.82,0,0,1-.31-.22h0V43H3.18Zm-.54-.4A.7.7,0,0,0,3,41a.34.34,0,0,0,.15-.25V39.24A.4.4,0,0,0,2.93,39a.82.82,0,0,0-.31-.09.5.5,0,0,0-.49.29A1.65,1.65,0,0,0,2,40a3,3,0,0,0,0,.42,1.38,1.38,0,0,0,.12.36.6.6,0,0,0,.2.27A.43.43,0,0,0,2.64,41.11Zm2,0A.51.51,0,0,0,5,41a.6.6,0,0,0,.2-.27,1.3,1.3,0,0,0,.11-.35,2,2,0,0,0,0-.43,1.67,1.67,0,0,0-.16-.8.52.52,0,0,0-.49-.29.53.53,0,0,0-.31.09.44.44,0,0,0-.23.29v1.51a.49.49,0,0,0,.16.25A.55.55,0,0,0,4.65,41.11Z"/><path class="cls-1" d="M9.28,41.82a1.82,1.82,0,0,1-.46-.06,2.69,2.69,0,0,1-.38-.18.85.85,0,0,1-.25-.32,1.11,1.11,0,0,1-.09-.46,1.14,1.14,0,0,1,.11-.49A.94.94,0,0,1,8.48,40a2.19,2.19,0,0,1,.38-.17,2.1,2.1,0,0,1,.42-.09,2.1,2.1,0,0,1,.43,0l.38-.07a.41.41,0,0,0,.24-.11.24.24,0,0,0,.09-.22.8.8,0,0,0,0-.24.37.37,0,0,0-.14-.14.32.32,0,0,0-.2-.07.86.86,0,0,0-.24,0,1,1,0,0,0-.45.11.51.51,0,0,0-.18.41h-1a1.16,1.16,0,0,1,.18-.56,1,1,0,0,1,.38-.36,1.94,1.94,0,0,1,.51-.2,2.71,2.71,0,0,1,.58-.07,4.93,4.93,0,0,1,.54,0,1.4,1.4,0,0,1,.49.15.8.8,0,0,1,.36.32.86.86,0,0,1,.13.51V41a3.17,3.17,0,0,0,0,.45.89.89,0,0,0,.09.31h-1s0-.11,0-.15a.55.55,0,0,1,0-.18,1.39,1.39,0,0,1-.54.33A2.17,2.17,0,0,1,9.28,41.82Zm.34-.62a.78.78,0,0,0,.44-.09.61.61,0,0,0,.23-.22.72.72,0,0,0,.09-.27.94.94,0,0,0,0-.22V40a.42.42,0,0,1-.16.09.65.65,0,0,1-.2,0,2.25,2.25,0,0,0-.22,0,.78.78,0,0,0-.22,0,1.89,1.89,0,0,0-.23.05.35.35,0,0,0-.17.09l-.14.13a.72.72,0,0,0,0,.22.67.67,0,0,0,0,.22.2.2,0,0,0,.14.14.28.28,0,0,0,.2.07Z"/><path class="cls-1" d="M15.1,41.82a1.63,1.63,0,0,1-.82-.18,1.27,1.27,0,0,1-.51-.49,1.58,1.58,0,0,1-.27-.67,3.81,3.81,0,0,1-.07-.75,7.57,7.57,0,0,1,.05-.87,2.43,2.43,0,0,1,.17-.76,1.9,1.9,0,0,1,.43-.6,1.7,1.7,0,0,1,.76-.38,1.54,1.54,0,0,1,.35,0,2.11,2.11,0,0,0,.38,0,1,1,0,0,0,.31-.07c.09,0,.14-.06.14-.13h.8a1.51,1.51,0,0,1-.13.51.7.7,0,0,1-.32.29,1.61,1.61,0,0,1-.51.16c-.2,0-.45.06-.71.09a1.32,1.32,0,0,0-.56.15,1,1,0,0,0-.36.31,2.89,2.89,0,0,0-.22.43,1.85,1.85,0,0,0-.09.49h0a2.4,2.4,0,0,1,.18-.36,1.05,1.05,0,0,1,.29-.31,1.11,1.11,0,0,1,.4-.22,1.33,1.33,0,0,1,.54-.09,1.47,1.47,0,0,1,.62.13,1.53,1.53,0,0,1,.51.36,1.43,1.43,0,0,1,.34.56,1.9,1.9,0,0,1,.13.73,2,2,0,0,1-.13.74,1.5,1.5,0,0,1-.36.55,1.55,1.55,0,0,1-.58.36A2.83,2.83,0,0,1,15.1,41.82Zm.07-.71a.69.69,0,0,0,.58-.27A1.34,1.34,0,0,0,16,40a1.36,1.36,0,0,0-.2-.8.66.66,0,0,0-.6-.29.68.68,0,0,0-.58.29,1.43,1.43,0,0,0-.2.8,1.21,1.21,0,0,0,.22.8A.62.62,0,0,0,15.17,41.11Z"/><path class="cls-1" d="M18.87,38.26h.91v.44h0a.94.94,0,0,1,.44-.4,1.32,1.32,0,0,1,.6-.13,1.5,1.5,0,0,1,.72.15,2,2,0,0,1,.49.4,2,2,0,0,1,.29.61,2.71,2.71,0,0,1,.09.71,2.46,2.46,0,0,1-.09.67,2,2,0,0,1-.29.58,2.26,2.26,0,0,1-.47.4,1.61,1.61,0,0,1-.67.15,1.32,1.32,0,0,1-.6-.13,1.19,1.19,0,0,1-.45-.38h0V43h-1V38.26Zm1.76,2.85a.75.75,0,0,0,.67-.34.87.87,0,0,0,.13-.35,2,2,0,0,0,.05-.43,1.9,1.9,0,0,0-.05-.4.68.68,0,0,0-.15-.35A.59.59,0,0,0,21,39a.71.71,0,0,0-.38-.09.74.74,0,0,0-.4.09,1.09,1.09,0,0,0-.27.25,1.05,1.05,0,0,0-.13.35,2.82,2.82,0,0,0,0,.43,3,3,0,0,0,0,.42,1.2,1.2,0,0,0,.13.36.78.78,0,0,0,.27.24A1,1,0,0,0,20.63,41.11Z"/><path class="cls-1" d="M24.33,38.26h.92v2.36l1.31-2.36h1.09v3.47h-.91V39.37l-1.32,2.36H24.33Z"/><path class="cls-1" d="M30.66,38.26v1.47l1.27-1.47h1.12l-1.32,1.38,1.52,2.09H32.09l-1-1.45-.47.49v1h-1V38.26Z"/><path class="cls-1" d="M36,41.82a1.89,1.89,0,0,1-.47-.06,3.35,3.35,0,0,1-.38-.18.73.73,0,0,1-.24-.32,1,1,0,0,1-.09-.46,1,1,0,0,1,.11-.49.84.84,0,0,1,.27-.32,2.09,2.09,0,0,1,.37-.17,2.2,2.2,0,0,1,.43-.09,2,2,0,0,1,.42,0l.38-.07A.67.67,0,0,0,37,39.5a.24.24,0,0,0,.09-.22.57.57,0,0,0-.05-.24A.36.36,0,0,0,37,38.9a.35.35,0,0,0-.2-.07,1,1,0,0,0-.25,0,1,1,0,0,0-.44.11.51.51,0,0,0-.18.41h-1a1.06,1.06,0,0,1,.17-.56,1,1,0,0,1,.38-.36,2,2,0,0,1,.52-.2,2.63,2.63,0,0,1,.58-.07,5,5,0,0,1,.53,0,1.34,1.34,0,0,1,.49.15.8.8,0,0,1,.36.32.86.86,0,0,1,.13.51V41a3.17,3.17,0,0,0,0,.45,1.17,1.17,0,0,0,.09.31h-1s0-.11,0-.15,0-.11,0-.18a1.39,1.39,0,0,1-.54.33A1.9,1.9,0,0,1,36,41.82Zm.33-.62a.82.82,0,0,0,.45-.09.65.65,0,0,0,.31-.49.94.94,0,0,0,0-.22V40a.38.38,0,0,1-.15.09.79.79,0,0,1-.2,0,1.89,1.89,0,0,0-.23,0,.93.93,0,0,0-.22,0,1.42,1.42,0,0,0-.22.05.34.34,0,0,0-.18.09l-.13.13a.51.51,0,0,0,0,.22.48.48,0,0,0,0,.22.19.19,0,0,0,.13.14.28.28,0,0,0,.2.07Z"/><path class="cls-1" d="M43,41h.42c0-.09.09-.22.15-.38s.09-.31.14-.49.07-.38.11-.6,0-.45,0-.67v-.6h2.77V41h.44v1.67h-.89v-1H43.93v1H43Zm2.67,0V39h-.94v.09a6.06,6.06,0,0,1,0,.62c0,.2-.07.38-.09.56s-.09.31-.13.44a2.35,2.35,0,0,1-.14.34Z"/><path class="cls-1" d="M48.92,38.26h2a2.72,2.72,0,0,1,.42,0,1.46,1.46,0,0,1,.36.16.6.6,0,0,1,.24.26.88.88,0,0,1,0,.85.87.87,0,0,1-.34.29.71.71,0,0,1,.45.29.89.89,0,0,1,.18.58,1.06,1.06,0,0,1-.09.45,1,1,0,0,1-.25.33.92.92,0,0,1-.38.2,1.31,1.31,0,0,1-.46.07h-2.1Zm1.56,1.4a.68.68,0,0,0,.2,0,.27.27,0,0,0,.18-.07.63.63,0,0,0,.13-.11.4.4,0,0,0,0-.22.34.34,0,0,0,0-.2.22.22,0,0,0-.13-.12.44.44,0,0,0-.18,0l-.2,0h-.62v.8Zm.09,1.45a1.06,1.06,0,0,0,.25,0c.06,0,.13,0,.2-.07a.21.21,0,0,0,.13-.13.47.47,0,0,0,0-.25.45.45,0,0,0-.06-.24.31.31,0,0,0-.16-.14l-.22-.07-.25,0h-.67v.94Z"/><path class="cls-1" d="M55.74,41.82a1.9,1.9,0,0,1-.73-.13,1.5,1.5,0,0,1-.56-.38,1.72,1.72,0,0,1-.36-.58,2.14,2.14,0,0,1,0-1.47,1.63,1.63,0,0,1,.36-.58A1.5,1.5,0,0,1,55,38.3a1.87,1.87,0,0,1,.71-.13,1.61,1.61,0,0,1,.74.15,1.42,1.42,0,0,1,.53.43,1.71,1.71,0,0,1,.31.6,2.4,2.4,0,0,1,.11.71v.18H54.89a1,1,0,0,0,.25.67.89.89,0,0,0,.62.2.84.84,0,0,0,.49-.14.49.49,0,0,0,.25-.31h.85a1.49,1.49,0,0,1-.63.89A1.63,1.63,0,0,1,55.74,41.82Zm.74-2.21a1.22,1.22,0,0,0-.25-.55.61.61,0,0,0-.51-.18.81.81,0,0,0-.38.07.58.58,0,0,0-.24.2.45.45,0,0,0-.14.24,1.15,1.15,0,0,0,0,.22Z"/><path class="cls-1" d="M59.35,38.26h.92v.44h0a1,1,0,0,1,.45-.4,1.26,1.26,0,0,1,.6-.13,1.48,1.48,0,0,1,.71.15,1.78,1.78,0,0,1,.49.4,2,2,0,0,1,.29.61,2.34,2.34,0,0,1,.09.71,2.13,2.13,0,0,1-.09.67,2,2,0,0,1-.29.58,2,2,0,0,1-.47.4,1.61,1.61,0,0,1-.67.15,1.32,1.32,0,0,1-.6-.13,1.16,1.16,0,0,1-.44-.38h0V43h-.95V38.26Zm1.76,2.85a.78.78,0,0,0,.41-.09.63.63,0,0,0,.26-.25,1.07,1.07,0,0,0,.14-.35,2.17,2.17,0,0,0,0-.83.8.8,0,0,0-.16-.35.59.59,0,0,0-.27-.25.69.69,0,0,0-.38-.09.74.74,0,0,0-.4.09.88.88,0,0,0-.4.6,2.86,2.86,0,0,0,0,.43,3,3,0,0,0,0,.42,1,1,0,0,0,.14.36.67.67,0,0,0,.26.24A1,1,0,0,0,61.11,41.11Z"/><path class="cls-1" d="M66.4,41.82a2,2,0,0,1-.74-.13,1.68,1.68,0,0,1-.56-.38,1.87,1.87,0,0,1-.35-.58,2,2,0,0,1,0-1.47,1.76,1.76,0,0,1,.35-.58,1.68,1.68,0,0,1,.56-.38,1.92,1.92,0,0,1,.72-.13,1.62,1.62,0,0,1,.73.15,1.74,1.74,0,0,1,.54.43,1.89,1.89,0,0,1,.31.6,2.77,2.77,0,0,1,.11.71v.18H65.55a.92.92,0,0,0,.25.67.87.87,0,0,0,.62.2.84.84,0,0,0,.49-.14.56.56,0,0,0,.25-.31H68a1.44,1.44,0,0,1-.62.89A1.65,1.65,0,0,1,66.4,41.82Zm.73-2.21a1.12,1.12,0,0,0-.24-.55.61.61,0,0,0-.51-.18A.81.81,0,0,0,66,39a.67.67,0,0,0-.25.2.44.44,0,0,0-.13.24.74.74,0,0,0-.05.22Z"/><path class="cls-1" d="M70,38.26h.91v2.36l1.32-2.36h1.09v3.47h-.91V39.37L71.1,41.73H70Zm1.65-.43a2.86,2.86,0,0,1-.43,0,.88.88,0,0,1-.33-.18.86.86,0,0,1-.22-.29,1.12,1.12,0,0,1-.09-.45H71a.46.46,0,0,0,.22.34,1,1,0,0,0,.47.11,1.16,1.16,0,0,0,.47-.11.46.46,0,0,0,.22-.34h.38a.91.91,0,0,1-.09.45.8.8,0,0,1-.22.29.85.85,0,0,1-.34.18A1.43,1.43,0,0,1,71.66,37.83Z"/><path class="cls-1" d="M30.46,34.26h-5.3L22.7,29.45H21.05v4.81H16.19V19.46H24A7.19,7.19,0,0,1,28.75,21a4.2,4.2,0,0,1,.64,5.93,5,5,0,0,1-2.58,1.74ZM21.08,23.07v2.79h2.05a1.91,1.91,0,0,0,1.34-.42,1.21,1.21,0,0,0,0-1.94,2,2,0,0,0-1.34-.43Z"/><path class="cls-1" d="M1,34.26V19.46H9a5.5,5.5,0,0,1,3.83,1.27,3.48,3.48,0,0,1,1.23,2.7,3,3,0,0,1-.49,1.69,2.78,2.78,0,0,1-1.36,1.14,3.75,3.75,0,0,1,1.92,1.41,3.88,3.88,0,0,1,.71,2.25,3.84,3.84,0,0,1-1.29,3,5.88,5.88,0,0,1-4.15,1.38ZM8.26,23.07H5.83v2.41h2a2,2,0,0,0,1.31-.4,1.23,1.23,0,0,0,.49-.91,1,1,0,0,0-.33-.78A1.42,1.42,0,0,0,8.26,23.07Zm.38,5.2H5.83v2.41H8.64a1.77,1.77,0,0,0,1.09-.32.91.91,0,0,0,.38-.75,1.38,1.38,0,0,0-.38-.94A1.45,1.45,0,0,0,8.64,28.27Z"/><path class="cls-1" d="M70.08,20.35a7.19,7.19,0,0,0-4-1.09c-4.44,0-7.34,3-7.34,7.49A7.18,7.18,0,0,0,62,33.17a7.33,7.33,0,0,0,4,1.09c4.43,0,7.33-3,7.33-7.49A7.24,7.24,0,0,0,70.08,20.35ZM63.3,27c0-2.69,1-4.12,2.74-4.12a2.57,2.57,0,0,1,2.54,1.92,5.54,5.54,0,0,1,.27,1.82c0,2.7-1,4.13-2.74,4.13a2.57,2.57,0,0,1-2.54-1.92A5.47,5.47,0,0,1,63.3,27Z"/><path class="cls-1" d="M54.45,19.4s-2.92,7.91-3.17,8.93c-.2-1-3.1-8.93-3.1-8.93H43.1l5.51,14.86h5.44L59.58,19.4Z"/><path class="cls-1" d="M41.25,34.26h5.08L40.83,19.4H35.39L30.71,32l1.49,2.27H35l.64-1.76h5C41,33.55,41.25,34.26,41.25,34.26ZM36.86,29c.62-1.72,1.16-3.28,1.27-3.7.09.4.62,2,1.23,3.7Z"/><rect class="cls-2" width="74" height="56"/></g></g></svg>