<svg xmlns="http://www.w3.org/2000/svg" viewBox="0 0 54 56"><defs><style>.cls-1{fill:#822424;}.cls-2{fill:#832323;}.cls-3{fill:none;}</style></defs><g id="Слой_2" data-name="Слой 2"><g id="Слой_1-2" data-name="Слой 1"><path class="cls-1" d="M18.07,32.46c.1-3.74,7.77-3.64,13.62-3.36a9.38,9.38,0,0,1,8,4.51c3-1.92-.2-5.75-1.73-6.9a3.23,3.23,0,0,1-1.15-3.07c-1.06-5-22.35-13.91-23.31-14.3A8.16,8.16,0,0,1,11.76,8h-.21V48H46.21C32.79,43.7,18,36.09,18.07,32.46Z"/><path class="cls-1" d="M21.08,8c2.47,1.46,18.1,11,18.1,16.69,0,0,6.52,5.95,2,10.17,0,0-2.69,1.82-3.65,1.82,0,0,1.35-6.43-8.63-5.95,0,0-5.75.58-4.7,2S37.85,43.23,51.26,47.69V8Z"/><path class="cls-2" d="M2.85,47.32V46H5.74a1,1,0,0,0-.23-.62,5,5,0,0,0-1.06-.5A2.83,2.83,0,0,1,3.08,44a2.64,2.64,0,0,1-.27-1.37v-.2h1v.19a1.39,1.39,0,0,0,.1.62.8.8,0,0,0,.32.31,5.57,5.57,0,0,0,.87.36,3.3,3.3,0,0,1,.59.27,1.4,1.4,0,0,1,.45.52,1.38,1.38,0,0,1,.52-.76,6.39,6.39,0,0,1,1.11-.65l1.86-.93v1.61l-1.75.81-.15.08L7.42,45a2.12,2.12,0,0,0-.62.43.92.92,0,0,0-.13.52h3v1.37Z"/><path class="cls-2" d="M6.29,41.83a4.27,4.27,0,0,1-1.74-.31,2.94,2.94,0,0,1-.93-.63A2.51,2.51,0,0,1,3,40a3.78,3.78,0,0,1-.27-1.47,3.19,3.19,0,0,1,.93-2.4,3.56,3.56,0,0,1,2.59-.9,3.55,3.55,0,0,1,2.57.9,3.14,3.14,0,0,1,.93,2.38,3.18,3.18,0,0,1-.93,2.41A3.47,3.47,0,0,1,6.29,41.83Zm0-1.41A2.53,2.53,0,0,0,8,39.89a1.83,1.83,0,0,0,0-2.7,2.63,2.63,0,0,0-1.78-.52,2.58,2.58,0,0,0-1.74.51,1.9,1.9,0,0,0,0,2.72A2.54,2.54,0,0,0,6.24,40.42Z"/><path class="cls-2" d="M9.64,34.18H2.85V32.81H5.53V30.12H2.85V28.75H9.64v1.37h-3v2.69h3Z"/><path class="cls-2" d="M2.85,26.79V22.1H8.5v-.6h2.62v1.14H9.64v4.27h1.48v1.14H8.5v-.57a6.29,6.29,0,0,0-2-.56,26,26,0,0,0-2.91-.13ZM4,25.48A13.31,13.31,0,0,1,8.5,26V23.46H4Z"/><path class="cls-2" d="M6.29,20.86a4.44,4.44,0,0,1-1.74-.31,3.15,3.15,0,0,1-.93-.64A2.42,2.42,0,0,1,3,19a3.71,3.71,0,0,1-.27-1.47,3.19,3.19,0,0,1,.93-2.4,3.56,3.56,0,0,1,2.59-.9,3.55,3.55,0,0,1,2.57.9,3.15,3.15,0,0,1,.93,2.39A3.16,3.16,0,0,1,8.83,20,3.47,3.47,0,0,1,6.29,20.86Zm0-1.42A2.53,2.53,0,0,0,8,18.91a1.82,1.82,0,0,0,0-2.69,2.63,2.63,0,0,0-1.78-.53,2.58,2.58,0,0,0-1.74.51,1.91,1.91,0,0,0,0,2.73A2.59,2.59,0,0,0,6.24,19.44Z"/><path class="cls-2" d="M9.64,13.2H2.85V11A7.56,7.56,0,0,1,3,9.38a1.76,1.76,0,0,1,.66-1A2.11,2.11,0,0,1,4.94,8a2.21,2.21,0,0,1,1,.22,1.82,1.82,0,0,1,.67.58A2,2,0,0,1,7,9.52a7.34,7.34,0,0,1,.1,1.42v.89H9.64ZM4,11.83H5.93v-.75A3.51,3.51,0,0,0,5.82,10,.87.87,0,0,0,5,9.42a.89.89,0,0,0-.61.21,1,1,0,0,0-.3.56,6.44,6.44,0,0,0,0,1Z"/><rect class="cls-3" width="54" height="56"/></g></g></svg>