<svg xmlns="http://www.w3.org/2000/svg" viewBox="0 0 78 56"><defs><style>.cls-1{fill:#3d3d3d;}.cls-2{fill:#fddd30;}.cls-3{fill:none;}</style></defs><g id="Слой_2" data-name="Слой 2"><g id="Слой_1-2" data-name="Слой 1"><rect class="cls-1" x="1.5" y="11" width="75" height="34"/><path class="cls-2" d="M9.64,25.89A4.41,4.41,0,0,1,8,24.17a5.2,5.2,0,0,1-.6-2.51,5.14,5.14,0,0,1,.6-2.5,4.37,4.37,0,0,1,1.65-1.73A4.64,4.64,0,0,1,12,16.81a4.7,4.7,0,0,1,2.08.45,4.11,4.11,0,0,1,1.53,1.31l-1.51,1.52a2.4,2.4,0,0,0-2-1.09,2.25,2.25,0,0,0-1.22.33,2.17,2.17,0,0,0-.83.94,3.37,3.37,0,0,0,0,2.78,2.12,2.12,0,0,0,.83.94,2.26,2.26,0,0,0,1.22.34,2.42,2.42,0,0,0,2-1.1l1.51,1.52a4,4,0,0,1-1.53,1.31,4.7,4.7,0,0,1-2.08.45A4.64,4.64,0,0,1,9.64,25.89Z"/><path class="cls-2" d="M22.21,21.12H20.12v5.2H17.85v-5.2H15.74v-2h6.47Z"/><path class="cls-2" d="M28.23,19.8a3.34,3.34,0,0,1,.85,2.51v4H27v-.93A1.92,1.92,0,0,1,25,26.44a2.72,2.72,0,0,1-1.31-.29,2,2,0,0,1-.83-.79,2.24,2.24,0,0,1-.28-1.14,1.91,1.91,0,0,1,.7-1.59,3.5,3.5,0,0,1,2.19-.57h1.3q-.06-1.14-1.38-1.14a2.92,2.92,0,0,0-1,.16,2.61,2.61,0,0,0-.82.46l-.77-1.72a4.25,4.25,0,0,1,1.32-.62A5.86,5.86,0,0,1,25.75,19,3.46,3.46,0,0,1,28.23,19.8Zm-1.86,4.83A1.18,1.18,0,0,0,26.8,24v-.63h-1c-.66,0-1,.24-1,.73a.68.68,0,0,0,.23.54.92.92,0,0,0,.62.2A1.19,1.19,0,0,0,26.37,24.63Z"/><path class="cls-2" d="M37.09,19.1v7.22H34.81v-5.2H33.16l0,1.1a13.48,13.48,0,0,1-.25,2.33A3.08,3.08,0,0,1,32.19,26a1.66,1.66,0,0,1-1.29.52,4.64,4.64,0,0,1-1.11-.18l.1-2.06.29,0a.64.64,0,0,0,.56-.27,1.7,1.7,0,0,0,.27-.71,8.68,8.68,0,0,0,.09-1.2l.1-3Z"/><path class="cls-2" d="M44.43,22a2.29,2.29,0,0,1,.69,1.79,2.35,2.35,0,0,1-.79,1.88,3.12,3.12,0,0,1-2.17.67H38.63V19.1H40.9v2.24h1.55A2.85,2.85,0,0,1,44.43,22ZM42.8,23.73a.79.79,0,0,0-.22-.63,1,1,0,0,0-.65-.21h-1v1.69h1A.77.77,0,0,0,42.8,23.73Z"/><path class="cls-2" d="M46.09,19.1h2.27v2.68h2.35V19.1H53v7.22H50.71V23.79H48.36v2.53H46.09Z"/><path class="cls-2" d="M55.85,26a3.35,3.35,0,0,1-1.31-1.33,4.1,4.1,0,0,1,0-3.85,3.26,3.26,0,0,1,1.31-1.32A3.69,3.69,0,0,1,57.74,19a3.78,3.78,0,0,1,1.9.48A3.33,3.33,0,0,1,61,20.78a3.9,3.9,0,0,1,.47,1.92A4,4,0,0,1,61,24.63,3.42,3.42,0,0,1,59.64,26a4,4,0,0,1-3.79,0Zm2.87-2a1.89,1.89,0,0,0,.39-1.27,1.85,1.85,0,0,0-.39-1.25,1.22,1.22,0,0,0-1-.45,1.25,1.25,0,0,0-1,.45,1.9,1.9,0,0,0-.38,1.25A1.94,1.94,0,0,0,56.75,24a1.23,1.23,0,0,0,1,.46A1.2,1.2,0,0,0,58.72,24Z"/><path class="cls-2" d="M62.49,19.1h2.27v3.79l2.73-3.79h2.1v7.22H67.31V22.53L64.6,26.32H62.49Zm1.7-1.23a2.26,2.26,0,0,1-.56-1.66h1.48a1.12,1.12,0,0,0,.19.7.67.67,0,0,0,.58.23.71.71,0,0,0,.59-.23,1.1,1.1,0,0,0,.2-.7h1.5a2.22,2.22,0,0,1-.56,1.66,2.4,2.4,0,0,1-1.72.54A2.33,2.33,0,0,1,64.19,17.87Z"/><path class="cls-2" d="M9.12,39a3.4,3.4,0,0,1-1.33-1.33,4,4,0,0,1-.47-1.93,3.9,3.9,0,0,1,.47-1.92,3.31,3.31,0,0,1,1.33-1.32A3.88,3.88,0,0,1,11.06,32a3.44,3.44,0,0,1,1.91.53A2.92,2.92,0,0,1,14.11,34l-1.77,1A1.41,1.41,0,0,0,11,34a1.29,1.29,0,0,0-1,.45,1.81,1.81,0,0,0-.41,1.25A1.85,1.85,0,0,0,10,37a1.27,1.27,0,0,0,1,.46,1.41,1.41,0,0,0,1.3-1l1.77,1A2.92,2.92,0,0,1,13,38.92a3.44,3.44,0,0,1-1.91.52A3.88,3.88,0,0,1,9.12,39Z"/><path class="cls-2" d="M21.14,34.12H19.05v5.2H16.78v-5.2H14.67v-2h6.47Z"/><path class="cls-2" d="M27.4,32.8a3.34,3.34,0,0,1,.85,2.51v4H26.13v-.93a1.92,1.92,0,0,1-1.93,1,2.72,2.72,0,0,1-1.31-.29,2,2,0,0,1-.83-.79,2.24,2.24,0,0,1-.28-1.14,1.89,1.89,0,0,1,.71-1.59,3.44,3.44,0,0,1,2.18-.57H26q-.06-1.14-1.38-1.14a2.92,2.92,0,0,0-.95.16,2.61,2.61,0,0,0-.82.46l-.77-1.72a4.25,4.25,0,0,1,1.32-.62A5.93,5.93,0,0,1,24.93,32,3.45,3.45,0,0,1,27.4,32.8Zm-1.86,4.83A1.18,1.18,0,0,0,26,37v-.63H25c-.67,0-1,.24-1,.73a.68.68,0,0,0,.23.54.92.92,0,0,0,.62.2A1.19,1.19,0,0,0,25.54,37.63Z"/><path class="cls-2" d="M29.87,32.1h2.27v2.68h2.34V32.1h2.28v7.22H34.48V36.79H32.14v2.53H29.87Z"/><path class="cls-2" d="M46.25,37.3v3.52H44.13v-1.5H40v1.5H37.91V37.3h.24a.87.87,0,0,0,.81-.71,7.21,7.21,0,0,0,.28-2l.08-2.52h6v5.2Zm-5.09-.93a2,2,0,0,1-.36.93h2.26V34.12H41.32l0,.69A12.78,12.78,0,0,1,41.16,36.37Z"/><path class="cls-2" d="M52.61,32.8a3.38,3.38,0,0,1,.85,2.51v4H51.33v-.93a1.91,1.91,0,0,1-1.92,1,2.7,2.7,0,0,1-1.31-.29,2,2,0,0,1-.84-.79A2.35,2.35,0,0,1,47,37.22a1.92,1.92,0,0,1,.71-1.59,3.46,3.46,0,0,1,2.19-.57h1.3c0-.76-.51-1.14-1.39-1.14a2.92,2.92,0,0,0-.95.16,2.45,2.45,0,0,0-.81.46l-.77-1.72a4.3,4.3,0,0,1,1.31-.62A6,6,0,0,1,50.13,32,3.48,3.48,0,0,1,52.61,32.8Zm-1.87,4.83a1.2,1.2,0,0,0,.44-.62v-.63h-1c-.67,0-1,.24-1,.73a.71.71,0,0,0,.23.54.93.93,0,0,0,.63.2A1.18,1.18,0,0,0,50.74,37.63Z"/><path class="cls-2" d="M60.79,32.44a3.28,3.28,0,0,1,1.15,1.31,4.7,4.7,0,0,1,0,3.93A3.25,3.25,0,0,1,60.79,39a3,3,0,0,1-1.62.46,2.31,2.31,0,0,1-1.82-.76v3.23H55.07V32.1h2.18v.72A2.25,2.25,0,0,1,59.17,32,3.05,3.05,0,0,1,60.79,32.44ZM59.67,37a2.21,2.21,0,0,0,0-2.51,1.2,1.2,0,0,0-1-.46,1.23,1.23,0,0,0-1,.46,2.26,2.26,0,0,0,0,2.51,1.23,1.23,0,0,0,1,.46A1.2,1.2,0,0,0,59.67,37Z"/><path class="cls-2" d="M69.28,34.12H67.19v5.2H64.91v-5.2h-2.1v-2h6.47Z"/><rect class="cls-3" width="78" height="56"/></g></g></svg>