<svg xmlns="http://www.w3.org/2000/svg" viewBox="0 0 144 56"><defs><style>.cls-1{fill:#231f20;}.cls-2{fill:#ec2227;}.cls-3{fill:none;}</style></defs><g id="Слой_2" data-name="Слой 2"><g id="Слой_1-2" data-name="Слой 1"><path class="cls-1" d="M139.77,18.27h-2.71V25.1h-2.72V18.27h-2.7v-1.9h8.13v1.9m-9.25,6.83h-2.68V19.8l-3.33,5.3h-2.28V16.37h2.67v4.75L128,16.37h2.56Zm-10.38,0h-2.72V21.36h-2.81V25.1h-2.72V16.37h2.72v3h2.81v-3h2.72Zm-13-.92-.5.42a3,3,0,0,1-.59.37,3.93,3.93,0,0,1-.71.27,4.06,4.06,0,0,1-1,.1,2.6,2.6,0,0,1-1.93-.78,2.68,2.68,0,0,1-.76-2A2.83,2.83,0,0,1,102.1,21a2.66,2.66,0,0,1,1.11-1,6.16,6.16,0,0,1,1.77-.5c.69-.09,1.42-.16,2.21-.21v-.05a1,1,0,0,0-.53-1,3.69,3.69,0,0,0-1.6-.27,4.24,4.24,0,0,0-1.13.17,9.45,9.45,0,0,0-1.26.45h-.23V16.56c.27-.08.7-.17,1.3-.28a11.08,11.08,0,0,1,1.82-.15,5.59,5.59,0,0,1,3.29.75,2.62,2.62,0,0,1,1,2.29V25.1h-2.71Zm0-1.35V21l-1.12.12a4.24,4.24,0,0,0-.84.19,1.18,1.18,0,0,0-.55.38,1.07,1.07,0,0,0-.2.67,1,1,0,0,0,.33.85,1.71,1.71,0,0,0,1,.23,1.85,1.85,0,0,0,.74-.17A2.46,2.46,0,0,0,107.17,22.83Zm-9-2.16a3.3,3.3,0,0,0-.4-1.85,1.36,1.36,0,0,0-1.22-.57,2.57,2.57,0,0,0-.72.11,3.18,3.18,0,0,0-.72.35V23.1a1.55,1.55,0,0,0,.48.13,3.79,3.79,0,0,0,.62,0,1.69,1.69,0,0,0,1.47-.65A3.18,3.18,0,0,0,98.12,20.67Zm2.78-.05A5.11,5.11,0,0,1,99.84,24a3.26,3.26,0,0,1-2.62,1.28,3.82,3.82,0,0,1-1.13-.15,4.75,4.75,0,0,1-1-.46V28.3H92.35V16.37h2.71v.91a6.43,6.43,0,0,1,1.22-.83,3.18,3.18,0,0,1,1.44-.32,2.68,2.68,0,0,1,2.35,1.21A5.71,5.71,0,0,1,100.9,20.62Zm-9.6-4.88H86.4V25.1H83.5V13.53h7.8ZM76.59,25.1H73.92V19.8l-3.34,5.3H68.3V16.37H71v4.75L74,16.37h2.55ZM64.06,20.67a3.4,3.4,0,0,0-.39-1.85,1.38,1.38,0,0,0-1.23-.57,2.57,2.57,0,0,0-.72.11,3.12,3.12,0,0,0-.71.35V23.1a1.42,1.42,0,0,0,.47.13,3.79,3.79,0,0,0,.62,0,1.71,1.71,0,0,0,1.48-.65A3.26,3.26,0,0,0,64.06,20.67Zm2.78-.05A5.11,5.11,0,0,1,65.78,24a3.25,3.25,0,0,1-2.61,1.28A3.84,3.84,0,0,1,62,25.12a4.49,4.49,0,0,1-1-.46V28.3H58.29V16.37H61v.91a5.86,5.86,0,0,1,1.22-.83,3.11,3.11,0,0,1,1.43-.32A2.68,2.68,0,0,1,66,17.34,5.63,5.63,0,0,1,66.84,20.62Zm-12.64-1a2,2,0,0,0-.4-1.32,1.41,1.41,0,0,0-1.15-.45,1.64,1.64,0,0,0-1.24.47,2,2,0,0,0-.5,1.3Zm-.9,5.72a5.53,5.53,0,0,1-3.79-1.18,4.32,4.32,0,0,1-1.32-3.37,4.69,4.69,0,0,1,1.23-3.41,4.56,4.56,0,0,1,3.44-1.28,4,4,0,0,1,3,1.08,4.38,4.38,0,0,1,1,3.1v1h-6a2.46,2.46,0,0,0,.26,1,1.71,1.71,0,0,0,.57.65,2.41,2.41,0,0,0,.82.34,4.09,4.09,0,0,0,1,.11,3.64,3.64,0,0,0,.93-.11,4.6,4.6,0,0,0,.84-.27c.22-.1.43-.21.62-.32s.34-.22.46-.3h.29v2.24l-.61.25a6.68,6.68,0,0,1-.76.23,7,7,0,0,1-.91.18A9.2,9.2,0,0,1,53.3,25.34Zm-8.71-3a.9.9,0,0,0-.32-.79,1.56,1.56,0,0,0-1-.24H41.86v2h1.51a1.38,1.38,0,0,0,.9-.26A.87.87,0,0,0,44.59,22.38ZM44.2,19a.79.79,0,0,0-.29-.7,1.69,1.69,0,0,0-.93-.2H41.86v1.74H43a1.43,1.43,0,0,0,.87-.22A.74.74,0,0,0,44.2,19Zm3.16,3.46a2.4,2.4,0,0,1-.25,1.12,2.36,2.36,0,0,1-.66.81,3,3,0,0,1-1.12.56,5.72,5.72,0,0,1-1.39.14H39.16V16.37h4.55a11.33,11.33,0,0,1,1.41.07,2.49,2.49,0,0,1,.88.3,1.58,1.58,0,0,1,.69.66,2,2,0,0,1,.22,1,1.83,1.83,0,0,1-.35,1.13,2.26,2.26,0,0,1-.88.74v.09a2.25,2.25,0,0,1,1.21.72A2.09,2.09,0,0,1,47.36,22.47Zm-13.57.42V15.74H31.26a24.57,24.57,0,0,1-.58,3.93,16.58,16.58,0,0,1-1.1,3.22Zm4,4.87H35.13v-2.7H28.66v2.7H26V22.89h.77a16.63,16.63,0,0,0,1.29-4.13,26.89,26.89,0,0,0,.48-5.23H36.7v9.36h1.1Z"/><path class="cls-1" d="M136.31,38.68h-1.08V36.55l-1.34,2.13H133V35.17h1.08v1.91l1.23-1.91h1v3.51m-9.69-1.78a1.38,1.38,0,0,0-.16-.74.54.54,0,0,0-.49-.23.92.92,0,0,0-.29,0,1.11,1.11,0,0,0-.29.14v1.77l.19,0,.25,0a.67.67,0,0,0,.59-.27A1.28,1.28,0,0,0,126.62,36.9Zm1.12,0a2.06,2.06,0,0,1-.43,1.35,1.32,1.32,0,0,1-1,.52,1.56,1.56,0,0,1-.46-.06,1.84,1.84,0,0,1-.41-.19V40H124.3v-4.8h1.09v.37a2.54,2.54,0,0,1,.49-.34,1.34,1.34,0,0,1,.58-.12,1.08,1.08,0,0,1,.94.48A2.3,2.3,0,0,1,127.74,36.88Zm-9.73-.4a.8.8,0,0,0-.17-.53.56.56,0,0,0-.46-.18.65.65,0,0,0-.5.19.82.82,0,0,0-.2.52Zm-.37,2.29a2.18,2.18,0,0,1-1.52-.47,1.74,1.74,0,0,1-.53-1.35,1.87,1.87,0,0,1,.49-1.37,1.8,1.8,0,0,1,1.38-.52,1.6,1.6,0,0,1,1.22.44,1.75,1.75,0,0,1,.4,1.24v.39h-2.39a1,1,0,0,0,.1.41.65.65,0,0,0,.23.26.82.82,0,0,0,.33.14,1.73,1.73,0,0,0,.41,0,1.78,1.78,0,0,0,.71-.15l.25-.13a1,1,0,0,0,.19-.12H119v.9l-.24.1-.31.09a2.21,2.21,0,0,1-.37.08A3.1,3.1,0,0,1,117.64,38.77Zm-8.15-1.18a.35.35,0,0,0-.13-.32.64.64,0,0,0-.38-.1h-.59V38H109a.57.57,0,0,0,.36-.11A.33.33,0,0,0,109.49,37.59Zm-.16-1.36a.31.31,0,0,0-.11-.28.72.72,0,0,0-.38-.08h-.45v.7h.47a.56.56,0,0,0,.35-.09A.29.29,0,0,0,109.33,36.23Zm1.28,1.39a1.06,1.06,0,0,1-.1.45,1.09,1.09,0,0,1-.27.33,1.25,1.25,0,0,1-.45.22,2.34,2.34,0,0,1-.56.06h-1.92V35.17h1.83a3.78,3.78,0,0,1,.56,0,.85.85,0,0,1,.36.12.64.64,0,0,1,.27.27.8.8,0,0,1,.09.39.69.69,0,0,1-.14.45.92.92,0,0,1-.35.3v0a1,1,0,0,1,.48.29A.84.84,0,0,1,110.61,37.62Zm-9.94.27v-2H99.9A8.55,8.55,0,0,1,99.72,37a4.74,4.74,0,0,1-.31.86Zm1.43,1.66h-1v-.88h-2v.88h-1V37.89h.25a5.3,5.3,0,0,0,.38-1.2,8.18,8.18,0,0,0,.14-1.52h2.85v2.72h.35ZM90.35,36.48a.86.86,0,0,0-.16-.53.57.57,0,0,0-.46-.18.63.63,0,0,0-.5.19.77.77,0,0,0-.2.52ZM90,38.77a2.18,2.18,0,0,1-1.52-.47A1.71,1.71,0,0,1,87.94,37a1.87,1.87,0,0,1,.49-1.37,1.8,1.8,0,0,1,1.38-.52A1.57,1.57,0,0,1,91,35.5a1.75,1.75,0,0,1,.41,1.24v.39H89a1,1,0,0,0,.11.41.58.58,0,0,0,.23.26.84.84,0,0,0,.32.14,1.78,1.78,0,0,0,.41,0,1.58,1.58,0,0,0,.38,0,1.93,1.93,0,0,0,.34-.11l.25-.13.18-.12h.12v.9l-.25.1-.3.09a2.21,2.21,0,0,1-.37.08A3.17,3.17,0,0,1,90,38.77Zm-7.28-3.6v3.51h-1.1V35.17Zm-2.66,2.64a.34.34,0,0,0,.07-.15.51.51,0,0,0-.11-.48.62.62,0,0,0-.39-.11h-.39V38h.39a.61.61,0,0,0,.28,0A.37.37,0,0,0,80.05,37.81Zm1.2-.31a1.18,1.18,0,0,1-.1.5,1,1,0,0,1-.28.37,1.47,1.47,0,0,1-.44.24,2,2,0,0,1-.61.07H78.14V35.17h1.09v1.19h.59a2.66,2.66,0,0,1,.62,0,1,1,0,0,1,.44.21.81.81,0,0,1,.28.37A1.44,1.44,0,0,1,81.25,37.5Zm-8.6,1.18h-1.1v-1.5H70.42v1.5H69.33V35.17h1.09v1.22h1.13V35.17h1.1ZM63,37.81a.51.51,0,0,0,.07-.15.77.77,0,0,0,0-.15.39.39,0,0,0-.14-.33.61.61,0,0,0-.38-.11h-.44V38h.44a.54.54,0,0,0,.27,0A.41.41,0,0,0,63,37.81Zm1.2-.31a1.18,1.18,0,0,1-.11.5,1.14,1.14,0,0,1-.27.37,1.6,1.6,0,0,1-.44.24,2,2,0,0,1-.61.07H61V35.17h1.09v1.19h.64a2.57,2.57,0,0,1,.61,0,1,1,0,0,1,.44.21.75.75,0,0,1,.28.37A1.25,1.25,0,0,1,64.16,37.5Zm-8.65,1.18H54.42V35.94h-.86c0,.15,0,.28,0,.37a2.91,2.91,0,0,0,0,.31,5.24,5.24,0,0,1-.09.82,2,2,0,0,1-.16.52,1.1,1.1,0,0,1-.19.31,1.45,1.45,0,0,1-.21.22,1,1,0,0,1-.31.15,1.29,1.29,0,0,1-.37.06h-.44v-.89h.13l.15,0a.23.23,0,0,0,.14-.07,1,1,0,0,0,.27-.58c0-.24.07-.52.09-.82s0-.35,0-.55,0-.4,0-.59h2.92Zm-9.89-.37-.2.17a1.25,1.25,0,0,1-.24.15,2,2,0,0,1-.28.11,2.06,2.06,0,0,1-.39,0,1.06,1.06,0,0,1-.78-.31,1.09,1.09,0,0,1-.3-.78,1,1,0,0,1,.6-1,2.71,2.71,0,0,1,.71-.2l.89-.08v0a.42.42,0,0,0-.22-.41,1.47,1.47,0,0,0-.64-.11,2.07,2.07,0,0,0-.45.07l-.51.18h-.09v-.84c.11,0,.28-.07.52-.11a3.68,3.68,0,0,1,.73-.07,2.31,2.31,0,0,1,1.33.3,1.08,1.08,0,0,1,.41.92v2.39H45.62Zm0-.54V37l-.45,0a2.09,2.09,0,0,0-.34.08.61.61,0,0,0-.22.15.46.46,0,0,0-.08.27.37.37,0,0,0,.13.34.71.71,0,0,0,.4.1.82.82,0,0,0,.29-.07A1,1,0,0,0,45.62,37.77Zm-7-1.84H37.5v2.75H36.41V35.93H35.32v-.76h3.27ZM29.4,38.77a2.48,2.48,0,0,1-.79-.11,1.73,1.73,0,0,1-.63-.33,1.65,1.65,0,0,1-.41-.58,2.18,2.18,0,0,1-.14-.81,2.24,2.24,0,0,1,.15-.86A1.82,1.82,0,0,1,28,35.5a1.78,1.78,0,0,1,.61-.32,2.64,2.64,0,0,1,.74-.1,2.78,2.78,0,0,1,.58.06,2.83,2.83,0,0,1,.59.22v.93H30.4l-.17-.13L30,36a1.69,1.69,0,0,0-.27-.11,1.14,1.14,0,0,0-.33,0,.79.79,0,0,0-.65.29,1.22,1.22,0,0,0-.23.79,1.13,1.13,0,0,0,.24.79.88.88,0,0,0,.66.26,1.36,1.36,0,0,0,.36-.05,1.27,1.27,0,0,0,.26-.11,1,1,0,0,0,.19-.14l.14-.12h.14v.93l-.22.1-.25.08-.3.07A1.89,1.89,0,0,1,29.4,38.77Z"/><rect class="cls-2" x="25.46" y="31.09" width="114.4" height="0.61"/><path class="cls-1" d="M5.88,10.69l7.94-1.6a5.64,5.64,0,0,1,2.62.09h0a6.48,6.48,0,0,1,2.37,1.26,6.28,6.28,0,0,1,1.61,2.1A6.11,6.11,0,0,1,21,15.11V40.89a6.16,6.16,0,0,1-4.81,6,5.69,5.69,0,0,1-2.72,0l-7.58-2V42.68L14,44.82a3.5,3.5,0,0,0,1.73,0,4.13,4.13,0,0,0,1.66-.8,4,4,0,0,0,1.13-1.41,3.94,3.94,0,0,0,.39-1.75V15.11a3.92,3.92,0,0,0-.37-1.71,4.2,4.2,0,0,0-2.63-2.21h0a3.49,3.49,0,0,0-1.67-.06L5.88,12.81V10.69"/><path class="cls-2" d="M14.75,14.37,5.28,16V39.43l9.42,2.19a.65.65,0,0,0,.34,0,.71.71,0,0,0,.3-.15.61.61,0,0,0,.21-.25.67.67,0,0,0,.07-.33V15.11a.79.79,0,0,0-.06-.32.67.67,0,0,0-.2-.25.76.76,0,0,0-.29-.16h0a.68.68,0,0,0-.32,0M4.06,14.08,14.4,12.32a2.65,2.65,0,0,1,1.22,0h0a2.89,2.89,0,0,1,1.83,1.54,2.88,2.88,0,0,1,.26,1.2V40.89a2.71,2.71,0,0,1-.28,1.23,2.89,2.89,0,0,1-.79,1,3,3,0,0,1-1.14.55,2.82,2.82,0,0,1-1.26,0L4,41.27l-.46-.11v-27Z"/><polyline class="cls-1" points="7.66 39.37 6.69 39.14 5.88 38.95 5.88 16.49 6.75 16.34 13.98 15.2 13.98 16.9 8.53 17.76 7.66 17.91 7.66 39.37"/><rect class="cls-3" width="144" height="56"/></g></g></svg>