<svg xmlns="http://www.w3.org/2000/svg" viewBox="0 0 82.68 36.68"><defs><style>.cls-1{fill:#666;}.cls-2{fill:#d0000b;}</style></defs><g id="Слой_2" data-name="Слой 2"><g id="granit_dveri" data-name="granit dveri"><path class="cls-1" d="M43.77,0H56.69a3.81,3.81,0,0,1,3.55,1.92,3.42,3.42,0,0,1,.38,2.17q-.46,4.41-.91,8.8c-.43,4.2-.89,8.4-1.27,12.6A4.69,4.69,0,0,1,54,29.65l-.68,0c-4.68,0-9.36,0-14,0a3.46,3.46,0,0,1-3.12-1.53,5.71,5.71,0,0,0-6.35-1.81,6.63,6.63,0,0,0-3.16,2,3.75,3.75,0,0,1-2.94,1.31H14.49c-1,0-1.69-.5-1.76-1.31a1.85,1.85,0,0,1,1.57-1.79,3.33,3.33,0,0,1,.63,0h8.91A2.3,2.3,0,0,0,25.43,26,1.76,1.76,0,0,0,26,24.08a1.68,1.68,0,0,0-1.63-1h-15c-1.09,0-1.81-.57-1.82-1.42A1.87,1.87,0,0,1,9.4,19.9H28.87a2.24,2.24,0,0,0,2-.94,1.58,1.58,0,0,0-1.2-2.53,5.61,5.61,0,0,0-.58,0H16.06a3.51,3.51,0,0,1-.92-.1,1.39,1.39,0,0,1-.73-2.23,2.13,2.13,0,0,1,1.89-.83H31.36a7.61,7.61,0,0,0,.83,0,2,2,0,0,0,1.68-1.11,1.56,1.56,0,0,0-1.12-2.29A3.6,3.6,0,0,0,32,9.78H23.65c-1,0-1.69-.53-1.73-1.34a1.82,1.82,0,0,1,1.62-1.78c.21,0,.43,0,.64,0,3.93,0,7.86,0,11.79,0a3.31,3.31,0,0,0,1.32-.26,1.79,1.79,0,0,0,1-2,1.59,1.59,0,0,0-1.7-1.18H30.15A1.54,1.54,0,0,1,28.58,2a1.64,1.64,0,0,1,1-1.78A3.38,3.38,0,0,1,30.76,0Z"/><path class="cls-1" d="M69.63,8.16h5a2.18,2.18,0,0,1,2.1,1.22q2.76,4.89,5.57,9.76a2.43,2.43,0,0,1,.32,1.54c-.25,2.26-.47,4.53-.71,6.8a2.31,2.31,0,0,1-2.37,2.19c-1.08,0-2.15,0-3.23,0a.87.87,0,0,1-.91-.53c-1.06-2.58-4.14-3.66-7-2.81A6.45,6.45,0,0,0,64.84,29a1.27,1.27,0,0,1-1.18.64c-.54,0-1.08,0-1.62,0a1.8,1.8,0,0,1-1.86-2.12q.8-7.8,1.6-15.6c0-.51.11-1,.15-1.51a2.36,2.36,0,0,1,2.46-2.27Z"/><path class="cls-1" d="M30.69,36.68a4.27,4.27,0,0,1-4.31-3.08A4.13,4.13,0,0,1,27.22,30a5.5,5.5,0,0,1,5.91-1.89,4,4,0,0,1,2.11,6.1A5.61,5.61,0,0,1,30.69,36.68Z"/><path class="cls-1" d="M69.23,36.68a4.21,4.21,0,0,1-3.89-2.3A3.92,3.92,0,0,1,66,29.87a5.33,5.33,0,0,1,4.68-2,4.25,4.25,0,0,1,2.51,1A4,4,0,0,1,73.3,35,5.85,5.85,0,0,1,69.23,36.68Z"/><path class="cls-2" d="M9.73,6.55h7.53a3.25,3.25,0,0,1,.54,0A1.43,1.43,0,0,1,19,7.51,1.37,1.37,0,0,1,18.71,9a1.87,1.87,0,0,1-1.49.72H1.58A1.5,1.5,0,0,1,0,8.37,1.82,1.82,0,0,1,1.43,6.61a3.48,3.48,0,0,1,.73-.06Z"/><path class="cls-2" d="M17.82,3.15H12.34a1.48,1.48,0,0,1-1.37-1,1.36,1.36,0,0,1,.54-1.6A2.66,2.66,0,0,1,12.94,0c3.47,0,6.94,0,10.41,0a1.54,1.54,0,0,1,1.72,1.25,1.77,1.77,0,0,1-1.44,1.83,3.94,3.94,0,0,1-.77.06Z"/><path class="cls-2" d="M7.11,13.26h2.1c1.09,0,1.76.52,1.81,1.37a1.82,1.82,0,0,1-1.7,1.76c-.83.06-1.66,0-2.49,0s-1.5,0-2.25,0a2.34,2.34,0,0,1-1-.22,1.4,1.4,0,0,1-.17-2.4,2.92,2.92,0,0,1,1.38-.5A19.59,19.59,0,0,1,7.11,13.26Z"/></g></g></svg>