<svg xmlns="http://www.w3.org/2000/svg" viewBox="0 0 49.56 41.36"><defs><style>.cls-1{fill:red;}.cls-2{fill:#fff;}.cls-3{fill:#d0000b;}.cls-4{fill:#666;}</style></defs><g id="Слой_2" data-name="Слой 2"><g id="granit_dveri" data-name="granit dveri"><path class="cls-1" d="M9.57,35.6q0-8.64,0-17.26c0-.73-.16-.89-.88-.89H2.33c-.72,0-.87.15-.87.88,0,3.39,0,6.79,0,10.18s0,6.72,0,10.08c0,1.17.66,1.59,1.7,1.07,1.87-.92,3.73-1.86,5.6-2.77A1.28,1.28,0,0,0,9.57,35.6Z"/><path class="cls-2" d="M43.61,10.93a7.93,7.93,0,0,1,1,6,8.82,8.82,0,0,1-1.18,2.79,1,1,0,0,0-.11.79c.11.19.47.25.72.34a.7.7,0,0,0,.29,0l0,.1c.29-.11.7-.14.86-.35a10,10,0,0,0,0-10.84.49.49,0,0,0-.33-.22,5.15,5.15,0,0,0-1.11,0,.62.62,0,0,0-.47,1A4.65,4.65,0,0,0,43.61,10.93Z"/><path class="cls-2" d="M33.53,3.75V2.52H29.08V3.75h4.45Z"/><path class="cls-3" d="M48.57,31.34c-3.16,0-6.33,0-9.5,0a2.16,2.16,0,0,0-.57.05.58.58,0,0,0-.47.73,1.46,1.46,0,0,0,.56.63c.1.08.31,0,.47,0h9.1v7.08H46.6c0-.48,0-.93,0-1.38s-.27-.9-.72-.9-.72.31-.73.89,0,.93,0,1.4h-1.8c0-.51,0-1,0-1.47s-.31-.84-.75-.83-.69.32-.7.83v1.46H40.07v-.51c0-1,0-2,0-3a.69.69,0,0,0-.69-.73.72.72,0,0,0-.73.65,3.75,3.75,0,0,0,0,.58c0,1,0,2,0,3h-1.8v-.67c0-.22,0-.45,0-.68,0-.6-.3-1-.75-.93s-.69.33-.7.92,0,.9,0,1.37H33.56c0-.49,0-.94,0-1.39s-.28-.9-.72-.9-.72.34-.73.9v1.4H30.28v-.49c0-.94,0-1.88,0-2.82,0-.61-.28-1-.73-.94s-.72.36-.72,1c0,.79,0,1.58,0,2.37v.9H27c0-.49,0-.94,0-1.38s-.29-.91-.74-.91-.7.32-.71.91,0,.92,0,1.39H23.76a11.54,11.54,0,0,0,0-1.56,1,1,0,0,0-.45-.66.81.81,0,0,0-.7.11,1.07,1.07,0,0,0-.27.69c0,.47,0,.95,0,1.41H20.5v-.51c0-1,0-1.93,0-2.9a.74.74,0,0,0-.7-.83.75.75,0,0,0-.74.8c0,.56,0,1.13,0,1.7v1.75H17.25c0-.49,0-1,0-1.42s-.31-.9-.76-.88-.69.33-.69.88,0,.93,0,1.41H14c0-.48,0-.92,0-1.37s-.27-.92-.71-.92-.73.34-.74.94v1.34H6.22c1-.59,2.05-1.12,3.1-1.61A2.72,2.72,0,0,0,11,35.47c0-.89,0-1.77,0-2.69H35.37a3.81,3.81,0,0,0,.48,0,.68.68,0,0,0,.65-.72.66.66,0,0,0-.6-.7,2.33,2.33,0,0,0-.53,0H11V18.41A2.1,2.1,0,0,0,8.62,16H2.32A2.07,2.07,0,0,0,0,18.33V38.55a2.5,2.5,0,0,0,2.82,2.8H48.35a1.27,1.27,0,0,0,.39,0c.28-.09.55-.21.82-.32V31.61A4.06,4.06,0,0,0,48.57,31.34Z"/><path class="cls-4" d="M1.42,6.39a2.51,2.51,0,0,0,2.7,1.88H21.53A1.14,1.14,0,0,0,22,9.5a6.48,6.48,0,0,1,3.39,5.81,11.45,11.45,0,1,0,12-11.53c-.8,0-1.61,0-2.45,0V2.72a1.51,1.51,0,0,0-1.66-1.65c-1.36,0-2.71,0-4.07,0A1.5,1.5,0,0,0,27.6,2.7c0,.33,0,.66,0,1H9.15c-.77,0-1.09.21-1.1.71s.33.74,1.13.74H21.5V6.82H4.11c-1,0-1.52-.63-1.23-1.62H5.44c.77,0,1.14-.24,1.13-.75s-.37-.71-1.11-.71H2.79V3.17c0-.77,0-1.55,0-2.32s-.51-1-1-.78a.78.78,0,0,0-.43.8c0,1.67,0,3.33,0,5A1.88,1.88,0,0,0,1.42,6.39Zm42.4,3.16a5.15,5.15,0,0,1,1.11,0,.49.49,0,0,1,.33.22,10,10,0,0,1,0,10.84c-.16.21-.57.24-.86.35l0-.1a.7.7,0,0,1-.29,0c-.25-.09-.61-.15-.72-.34a1,1,0,0,1,.11-.79,8.82,8.82,0,0,0,1.18-2.79,7.93,7.93,0,0,0-1-6,4.65,4.65,0,0,1-.26-.41A.62.62,0,0,1,43.82,9.55ZM40,11.06a5.12,5.12,0,0,1,.17,8.14,6.57,6.57,0,0,1-1.45.85.73.73,0,1,1-.57-1.32,3.78,3.78,0,0,0,1.91-1.57,3.58,3.58,0,0,0-.12-4.1,3.51,3.51,0,0,0-3.76-1.54,3.59,3.59,0,0,0-3,2.89,3.74,3.74,0,0,0,2.12,4.2,2.53,2.53,0,0,1,.44.21.66.66,0,0,1,.33.9.69.69,0,0,1-.92.39,4.93,4.93,0,0,1-3-2.8,10.51,10.51,0,0,1-.48-1.71,5.24,5.24,0,0,1,2.89-5A4.81,4.81,0,0,1,40,11.06ZM29.08,2.52h4.45V3.75H29.08Z"/></g></g></svg>