<svg xmlns="http://www.w3.org/2000/svg" viewBox="0 0 56.87 47.9"><defs><style>.cls-1{fill:#666;}.cls-2{fill:#d0000b;}</style></defs><g id="Слой_2" data-name="Слой 2"><g id="granit_dveri" data-name="granit dveri"><path class="cls-1" d="M56.87,14.35V14a1.07,1.07,0,0,0-1.16-.77c-.61,0-1.22,0-1.86,0V1a.89.89,0,0,0-1-1H47.43A1.17,1.17,0,0,0,47,.08a1,1,0,0,0-.56,1c0,3.9,0,7.81,0,11.71v.41H42.32a15.27,15.27,0,0,0-.84-1.72,4.8,4.8,0,0,0-3.57-2.23C37,9.13,36,9.2,35.07,9.16a1.13,1.13,0,0,0-1.16.49c-.81-.31-1.59-.62-2.38-.91a33.62,33.62,0,0,0-8.85-1.89,31.58,31.58,0,0,0-6.8.22,27.2,27.2,0,0,0-7.35,2,.93.93,0,0,1-.33.07,9.13,9.13,0,0,0-3.42.78A7.78,7.78,0,0,0,.45,14.29,15.77,15.77,0,0,0,0,16.12v1.07c.05.29.09.58.15.86a7.19,7.19,0,0,0,3.11,4.47.37.37,0,0,1,.17.49c-.26.76-.49,1.52-.71,2.29A41.83,41.83,0,0,0,.8,35.59a15.38,15.38,0,0,0,.39,4.22A14.91,14.91,0,0,0,2.58,43a6.59,6.59,0,0,0,2,2.53,10.55,10.55,0,0,0,6.82,1.9,5.24,5.24,0,0,0,2.08-.56,2.32,2.32,0,0,0,1.31-2.58,7.17,7.17,0,0,0-.41-1.18,13.68,13.68,0,0,1-1.08-6.47,5.1,5.1,0,0,1,1-2.63A1.2,1.2,0,0,0,14.6,33l2-.57a1,1,0,0,0,.82-1.32A7.58,7.58,0,0,1,19,24.79a.44.44,0,0,1,.25-.14l.66-.06,6.4-.4a1.45,1.45,0,0,0,.86-.34l4.42-3.67,2.19-1.8c.27.47.48.68.85.69a28.12,28.12,0,0,0,3.18,0,5,5,0,0,0,4.32-3.75c.06-.21.14-.27.34-.26h3.64l.27,0V46.63c0,.13,0,.26,0,.38a.88.88,0,0,0,.91.89H53a.87.87,0,0,0,.89-.84,1.93,1.93,0,0,0,0-.34V15.07c.63,0,1.23,0,1.83,0A1.07,1.07,0,0,0,56.87,14.35ZM23,18h0c.77,0,1.54,0,2.3,0a.94.94,0,0,1,1,.93,1,1,0,0,1-1,.91H20.74a.93.93,0,0,1-1-.9.91.91,0,0,1,1-.94C21.49,18,22.24,18,23,18Zm0-2.77h2.36a.92.92,0,1,1,0,1.83H20.66a.93.93,0,0,1-1-.92.91.91,0,0,1,1-.92ZM14.17,31.15a8.19,8.19,0,0,1,0-2.37A5.57,5.57,0,0,1,16.4,25a1.77,1.77,0,0,1,.38-.17,9.64,9.64,0,0,0-1.3,6Z"/><path class="cls-2" d="M53.85,13.21V1a.89.89,0,0,0-1-1H47.43A1.17,1.17,0,0,0,47,.08a1,1,0,0,0-.56,1c0,3.9,0,7.81,0,11.71v.41m-.27,1.87.27,0V46.63c0,.13,0,.26,0,.38a.88.88,0,0,0,.91.89H53a.87.87,0,0,0,.89-.84,1.93,1.93,0,0,0,0-.34V15.07"/></g></g></svg>