<svg xmlns="http://www.w3.org/2000/svg" viewBox="0 0 29.62 83.17"><defs><style>.cls-1{fill:#d0000b;}</style></defs><g id="Слой_2" data-name="Слой 2"><g id="logo"><path class="cls-1" d="M21.14,65.32l8.38.55.1.29C20.27,71.8,10.9,77.4,1.27,83.17,2.1,72.31,2.92,61.7,3.73,51.09L4,51,8.72,58.1c.49-.84.91-1.48,1.24-2.15A46.22,46.22,0,0,0,14.8,28.41,31.45,31.45,0,0,0,5.6,9.52a51.71,51.71,0,0,0-4.06-3.3C1.09,5.86.61,5.56,0,5.12c.56-.21.91-.36,1.27-.47,4.83-1.5,9.66-3,14.48-4.5a2.44,2.44,0,0,1,2.4.4,23.79,23.79,0,0,1,8.24,10.88,47.45,47.45,0,0,1,3.17,17.24,77.88,77.88,0,0,1-5.92,31.4C22.94,61.77,22.06,63.4,21.14,65.32Z"/></g></g></svg>