<svg xmlns="http://www.w3.org/2000/svg" viewBox="0 0 50.96 22.61"><defs><style>.cls-1{fill:#fff;}.cls-2{fill:#d0000b;}</style></defs><g id="Слой_2" data-name="Слой 2"><g id="Слой_1-2" data-name="Слой 1"><path class="cls-1" d="M27,0h8a2.38,2.38,0,0,1,2.19,1.19,2.15,2.15,0,0,1,.23,1.34C37.17,4.34,37,6.14,36.8,8c-.26,2.59-.55,5.18-.78,7.76a2.91,2.91,0,0,1-2.72,2.57H24.23a2.16,2.16,0,0,1-1.93-.95,3.51,3.51,0,0,0-3.91-1.11,4.06,4.06,0,0,0-1.95,1.25,2.27,2.27,0,0,1-1.81.8H8.93c-.63,0-1-.31-1.08-.81a1.12,1.12,0,0,1,1-1.1,2.55,2.55,0,0,1,.39,0c1.83,0,3.66,0,5.49,0a1.43,1.43,0,0,0,1-.32A1.07,1.07,0,0,0,16,14.84a1,1,0,0,0-1-.63H5.8c-.67,0-1.11-.35-1.12-.88a1.18,1.18,0,0,1,1.11-1.07h12a1.41,1.41,0,0,0,1.26-.57,1,1,0,0,0-.74-1.56H9.9a2.17,2.17,0,0,1-.57-.06.86.86,0,0,1-.45-1.38A1.33,1.33,0,0,1,10,8.17h9.29a4.34,4.34,0,0,0,.51,0,1.23,1.23,0,0,0,1-.69,1,1,0,0,0-.69-1.41,2.22,2.22,0,0,0-.45,0H14.58C14,6,13.53,5.7,13.51,5.2a1.11,1.11,0,0,1,1-1.09,2.55,2.55,0,0,1,.39,0h7.27A2.06,2.06,0,0,0,23,3.92a1.08,1.08,0,0,0,.6-1.25,1,1,0,0,0-1-.73h-4a1,1,0,0,1-1-.7,1,1,0,0,1,.62-1.1A2,2,0,0,1,19,0Z"/><path class="cls-1" d="M42.91,5H46a1.37,1.37,0,0,1,1.3.76c1.13,2,2.28,4,3.43,6a1.56,1.56,0,0,1,.2,1c-.16,1.39-.29,2.79-.44,4.19a1.43,1.43,0,0,1-1.46,1.35h-2a.55.55,0,0,1-.57-.32,3.44,3.44,0,0,0-4.28-1.73A3.93,3.93,0,0,0,40,17.89a.78.78,0,0,1-.73.4h-1A1.11,1.11,0,0,1,37.09,17c.32-3.21.66-6.42,1-9.62l.09-.93A1.46,1.46,0,0,1,39.69,5C40.76,5,41.84,5,42.91,5Z"/><path class="cls-1" d="M18.92,22.6a2.61,2.61,0,0,1-2.66-1.89,2.53,2.53,0,0,1,.52-2.21,3.38,3.38,0,0,1,3.64-1.17,2.44,2.44,0,0,1,1.3,3.76A3.44,3.44,0,0,1,18.92,22.6Z"/><path class="cls-1" d="M42.67,22.61a2.61,2.61,0,0,1-2.4-1.42,2.41,2.41,0,0,1,.41-2.78,3.28,3.28,0,0,1,2.88-1.21,2.66,2.66,0,0,1,1.55.6,2.5,2.5,0,0,1,.07,3.76A3.62,3.62,0,0,1,42.67,22.61Z"/><path class="cls-2" d="M6,4h4.64a1.82,1.82,0,0,1,.33,0,.89.89,0,0,1,.75.58.84.84,0,0,1-.19.89,1.13,1.13,0,0,1-.92.45H1a.92.92,0,0,1-1-.8A1.15,1.15,0,0,1,.88,4.07a2.27,2.27,0,0,1,.45,0Z"/><path class="cls-2" d="M11,1.94H7.6a.92.92,0,0,1-.84-.61.84.84,0,0,1,.33-1A1.67,1.67,0,0,1,8,0c2.14,0,4.28,0,6.42,0a1,1,0,0,1,1.06.78,1.09,1.09,0,0,1-.88,1.12,2,2,0,0,1-.48,0Z"/><path class="cls-2" d="M4.38,8.18H5.67c.68,0,1.09.31,1.12.84a1.11,1.11,0,0,1-1,1.08c-.51,0-1,0-1.54,0s-.92,0-1.39,0a1.54,1.54,0,0,1-.6-.13A.86.86,0,0,1,2.11,8.5,1.86,1.86,0,0,1,3,8.19,13.45,13.45,0,0,1,4.38,8.18Z"/></g></g></svg>