<svg xmlns="http://www.w3.org/2000/svg" viewBox="0 0 275.17 150"><defs><style>.cls-1{fill:#d0000b;}.cls-2{fill:#fff;}</style></defs><g id="Слой_2" data-name="Слой 2"><g id="heder"><path class="cls-1" d="M38.16,0H11.21V34.48A29.31,29.31,0,0,1,27.45,88.19L37.26,131h-26v19H38.16c41.25,0,64-33.75,64-75h0C102.16,33.75,79.41,0,38.16,0Z"/><circle cx="11.21" cy="63.79" r="11.21"/><path class="cls-2" d="M73.61,60.63q2.83,2.65,2.84,7.86V85.28H72.94V81.06a8.32,8.32,0,0,1-3.63,3.29,12.57,12.57,0,0,1-5.69,1.19,11.15,11.15,0,0,1-7.21-2.16,7.45,7.45,0,0,1-.18-11.29q2.49-2.11,8-2.11h8.6V68.33a6.93,6.93,0,0,0-2-5.33,8.07,8.07,0,0,0-5.72-1.83,14.46,14.46,0,0,0-4.94.85,12.59,12.59,0,0,0-4.07,2.34l-1.65-2.73a14.62,14.62,0,0,1,4.94-2.7,19.15,19.15,0,0,1,6.08-1Q70.78,58,73.61,60.63ZM69.49,81.24a8.46,8.46,0,0,0,3.3-4.1V72.71h-8.5c-4.64,0-7,1.62-7,4.84a4.43,4.43,0,0,0,1.81,3.74,8.2,8.2,0,0,0,5,1.36A9.66,9.66,0,0,0,69.49,81.24Z"/><path d="M121.85,87v14.27h-7.73V93.8H88.67v7.47H80.94L81,87h1.45q3.24-.1,4.58-4.74A58.26,58.26,0,0,0,88.67,69l.41-11.29H116.8V87ZM95,80.58A14.39,14.39,0,0,1,92.43,87h16.13V64.54H96.19L96,69.79A76.8,76.8,0,0,1,95,80.58Z"/><path d="M157.5,78.19a8.53,8.53,0,0,1,1.75,5.46,8.77,8.77,0,0,1-3.63,7.47Q152,93.81,145.24,93.8H127.46V57.73h16.8q6.28,0,9.79,2.43a7.89,7.89,0,0,1,3.5,6.9,8.29,8.29,0,0,1-1.34,4.71A9.16,9.16,0,0,1,152.45,75,9.78,9.78,0,0,1,157.5,78.19Zm-21.74-5.51h7.78a6.51,6.51,0,0,0,4.12-1.11,4.5,4.5,0,0,0,0-6.52,6.5,6.5,0,0,0-4.1-1.13h-7.78Zm15,10.3c0-3-2-4.48-5.87-4.48h-9.17v9.12h9.17C148.85,87.62,150.8,86.07,150.8,83Z"/><path d="M193.77,87.1v6.7H165.85V57.73H193.1v6.7h-19v7.83h16.75v6.49H174.14V87.1Z"/><path d="M224.45,59.33a12.94,12.94,0,0,1,5.44,18.42,12.08,12.08,0,0,1-5.44,4.53,20.25,20.25,0,0,1-8.32,1.58h-7.26V93.8h-8.35V57.73h15.61A20.08,20.08,0,0,1,224.45,59.33Zm-3.06,16.1a6.48,6.48,0,0,0,0-9.27,8.8,8.8,0,0,0-5.72-1.62h-6.8V77.05h6.8A8.8,8.8,0,0,0,221.39,75.43Z"/><path d="M237.31,57.73h8.29v23.5l17.21-23.5h7.83V93.8H262.4V70.36L245.19,93.8h-7.88Z"/><path d="M154.14,134.77a3.3,3.3,0,0,1,.85-2.15,10.6,10.6,0,0,1,2.36-2,28.79,28.79,0,0,1,3.53-2q2-1,4.4-2l.18-.08a.33.33,0,0,0,.12-.05,2.87,2.87,0,0,0-1.68-2.19,12.57,12.57,0,0,0-4.76-.65l-1.71-1.81.83-.71c.34-.28.75-.62,1.24-1l1.27-1,.94-.78,2-1.74,1.13-1c.33-.3.62-.56.85-.79l.76-.78.85-.94c.31-.33.57-.64.8-.93s.42-.54.59-.78a11.15,11.15,0,0,0,.79-1.54,4,4,0,0,0,.34-1.52c0-.88-.41-1.31-1.23-1.31a9,9,0,0,0-3.65,1.36,22.44,22.44,0,0,0-2.54,1.66,28,28,0,0,0-2.64,2.23H158l2.06-8h3.75l-2.11,4.33c.07-.07.14-.15.23-.23a4,4,0,0,1,.34-.31c.14-.13.33-.28.56-.46s.54-.4.91-.69a20.28,20.28,0,0,1,2.21-1.48c.35-.2.76-.41,1.21-.61a14.92,14.92,0,0,1,1.42-.54,13.92,13.92,0,0,1,1.47-.39,6.94,6.94,0,0,1,1.39-.15,4,4,0,0,1,3,1,3.9,3.9,0,0,1,1.06,2.93q0,3-3.14,6.81a44.29,44.29,0,0,1-8,7.3q4.23.52,5.86,2.46a61.44,61.44,0,0,0,12.15-7.92l1.08,1.33a54.6,54.6,0,0,1-12.45,8,5.44,5.44,0,0,1,.25,1.69,9.71,9.71,0,0,1-1.56,5.18,12.4,12.4,0,0,1-4.3,4.08,11.51,11.51,0,0,1-5.78,1.56,7.49,7.49,0,0,1-4-.92A2.87,2.87,0,0,1,154.14,134.77Zm4-.05a1.61,1.61,0,0,0,.52,1.19,1.86,1.86,0,0,0,1.39.52,5.13,5.13,0,0,0,3.78-2.19,9.3,9.3,0,0,0,1.93-5.81c-.83.44-1.58.83-2.25,1.2s-1.23.7-1.72,1a12.15,12.15,0,0,0-2.57,2A3,3,0,0,0,158.11,134.72Z"/><path d="M176.45,134.27a3.08,3.08,0,0,1,.35-1.39,6,6,0,0,1,.88-1.25,8,8,0,0,1,1.53-1.19c.64-.4,1.27-.77,1.9-1.1.31-.17.67-.35,1-.53s.82-.38,1.31-.58.92-.42,1.36-.59l1.26-.52c.38-.17.82-.34,1.3-.53L189,126a.5.5,0,0,0,.2-.08l1.43-4.42a10,10,0,0,1-.9,1,15.23,15.23,0,0,1-1.44,1.23,8.18,8.18,0,0,1-4.83,1.59,4.87,4.87,0,0,1-3.82-1.49,5.16,5.16,0,0,1-1.38-3.7,13.09,13.09,0,0,1,.43-3.37,14.2,14.2,0,0,1,1.18-3.09,17,17,0,0,1,1.76-2.74,18.6,18.6,0,0,1,2.16-2.34,18,18,0,0,1,2.39-1.93,18.75,18.75,0,0,1,2.51-1.42,14.46,14.46,0,0,1,2.41-.88,8.73,8.73,0,0,1,2.15-.3,2.56,2.56,0,0,1,2.59,1.43l.45-1.28h5.79l-6.92,19.12a47.43,47.43,0,0,0,11.1-7l1.08,1.33q-4.2,3.9-13,8l-.95,2.67q-3.56,9.88-11.1,9.89a7.91,7.91,0,0,1-4.15-1A3.23,3.23,0,0,1,176.45,134.27Zm4.48-.05a2.48,2.48,0,0,0,.5,1.61,1.75,1.75,0,0,0,1.41.6,3.41,3.41,0,0,0,2.62-1.74,27.37,27.37,0,0,0,2.84-6.26,35.7,35.7,0,0,0-5.5,3.07C181.55,132.41,180.93,133.31,180.93,134.22Zm3.4-15.58a4.14,4.14,0,0,0,.52,2.18,1.62,1.62,0,0,0,1.44.87,3.68,3.68,0,0,0,1.52-.34,6.58,6.58,0,0,0,1.72-1.22,10.37,10.37,0,0,0,1.94-2.68,24.89,24.89,0,0,0,1.81-4.47l1.36-4.17h-1.46a3.46,3.46,0,0,0,.48-1.64q0-.78-.63-.78a4.83,4.83,0,0,0-2.67,1.11,14,14,0,0,0-2.86,2.84,16.08,16.08,0,0,0-2.24,4A11.22,11.22,0,0,0,184.33,118.64Z"/><path d="M202.92,119.07a12.52,12.52,0,0,1,.91-4.61,15.22,15.22,0,0,1,2.51-4.22,23.47,23.47,0,0,1,3.44-3.39,15.24,15.24,0,0,1,3.94-2.33,10.39,10.39,0,0,1,3.86-.82A7.73,7.73,0,0,1,220,104a4.66,4.66,0,0,1,1.67.9,3.62,3.62,0,0,1,1,1.36,4.28,4.28,0,0,1,.33,1.69,5.59,5.59,0,0,1-1,3.27,7.12,7.12,0,0,1-1.95,1.87,12.16,12.16,0,0,1-2.68,1.32,17.2,17.2,0,0,1-3.18.8,23.29,23.29,0,0,1-3.46.26h-.73l-.5,0a9.56,9.56,0,0,0-.33,2.31,5.43,5.43,0,0,0,.24,1.69,2.74,2.74,0,0,0,.8,1.22,3.78,3.78,0,0,0,1.5.75,8.41,8.41,0,0,0,2.31.27,15.13,15.13,0,0,0,4-.56,19.43,19.43,0,0,0,3.65-1.35c1.06-.54,2-1.06,2.88-1.58a18.21,18.21,0,0,0,2-1.32l.71-.55,1.08,1.33-.42.36-.54.47c-.22.19-.54.43-1,.73l-1.59,1.11c-.66.44-1.31.85-2,1.25s-1.3.75-1.93,1.09a27.1,27.1,0,0,1-4.71,1.84,18.44,18.44,0,0,1-5.28.83,13.29,13.29,0,0,1-3.58-.43,6.48,6.48,0,0,1-2.46-1.25,5.06,5.06,0,0,1-1.42-2A7,7,0,0,1,202.92,119.07Zm7.32-5.88.5,0,.73,0a10,10,0,0,0,3.42-.55,6.77,6.77,0,0,0,2.44-1.39,6.08,6.08,0,0,0,1.35-1.79,4.23,4.23,0,0,0,.46-1.88c0-1.08-.44-1.61-1.33-1.61a6,6,0,0,0-4.1,2.13A17.09,17.09,0,0,0,210.24,113.19Z"/><path d="M223.87,119.07a11.8,11.8,0,0,1,1.39-5.38,18.87,18.87,0,0,1,3.54-5,19.16,19.16,0,0,1,4.91-3.62,11.76,11.76,0,0,1,5.36-1.41,5.85,5.85,0,0,1,3.71,1.06,3.73,3.73,0,0,1,1.34,3.12,4,4,0,0,1-.44,1.88,5.25,5.25,0,0,1-1.13,1.53,6,6,0,0,1-1.55,1,4.15,4.15,0,0,1-1.68.37l-.68-1.81a1.64,1.64,0,0,0,.67-.25A2.68,2.68,0,0,0,240,110a3.49,3.49,0,0,0,.52-1,4.46,4.46,0,0,0,.2-1.38,1.64,1.64,0,0,0-.38-1.14,1.4,1.4,0,0,0-1.1-.42,4.63,4.63,0,0,0-2.14.55,9.49,9.49,0,0,0-2.1,1.5,16.27,16.27,0,0,0-1.93,2.16,17.65,17.65,0,0,0-1.57,2.55,16.57,16.57,0,0,0-1.06,2.68A9.09,9.09,0,0,0,230,118a3.44,3.44,0,0,0,1.11,2.73,5.23,5.23,0,0,0,3.49,1,14.15,14.15,0,0,0,2-.15,18.07,18.07,0,0,0,2.07-.42,20.68,20.68,0,0,0,2-.6,17.7,17.7,0,0,0,1.78-.74c1.07-.54,2-1.06,2.92-1.58a18.51,18.51,0,0,0,2-1.32l.7-.55,1.08,1.33s-.36.33-.94.83a23.82,23.82,0,0,1-2.44,1.81,40.77,40.77,0,0,1-3.77,2.21,30.56,30.56,0,0,1-5,2,18.66,18.66,0,0,1-2.7.62,16.56,16.56,0,0,1-2.6.21q-4,0-6-1.61A5.71,5.71,0,0,1,223.87,119.07Z"/><path d="M247.24,113.69l3.45-9.46h5.94l-3,7.52a14.89,14.89,0,0,1,2.2-1,14.61,14.61,0,0,1,2.31-.62,10.33,10.33,0,0,1,2.35-.16,8.33,8.33,0,0,1,2.29.4,4.65,4.65,0,0,1,1.45.75,4.71,4.71,0,0,1,1.07,1.2,5.56,5.56,0,0,1,.64,1.52,6.3,6.3,0,0,1,.19,1.76,6.63,6.63,0,0,1-.82,2.89,11,11,0,0,1-2.07,2.75c.9-.32,1.89-.72,2.95-1.2s2.13-1,3.18-1.55,1.82-1,2.65-1.52a19.14,19.14,0,0,0,2.08-1.52l1.09,1.33a14.31,14.31,0,0,1-2.21,1.84,34.7,34.7,0,0,1-3.06,1.9c-1.14.63-2.35,1.23-3.64,1.8a39.39,39.39,0,0,1-3.9,1.48,24.85,24.85,0,0,1-3.71.93,25.56,25.56,0,0,1-3.53.35,1.55,1.55,0,0,1-.31,0,1.12,1.12,0,0,0-.27,0,15,15,0,0,1-4.64-.58,6.15,6.15,0,0,1-2.83-1.75,4.91,4.91,0,0,1-1.15-2.82,10.66,10.66,0,0,1,.39-3.76Zm6.54,9.71a4.88,4.88,0,0,0,2.3-.49,6,6,0,0,0,2-1.56,7.64,7.64,0,0,0,1.37-2.49,8.76,8.76,0,0,0,.4-3.31,4.17,4.17,0,0,0-.53-2,2.09,2.09,0,0,0-1.12-.89,2.89,2.89,0,0,0-1.47-.05,9,9,0,0,0-1.58.48,10.84,10.84,0,0,0-1.45.7l-1.07.64-.68,1.46a17.64,17.64,0,0,0-.61,2.91,7.66,7.66,0,0,0,0,2.36,3.32,3.32,0,0,0,.78,1.63A2.3,2.3,0,0,0,253.78,123.4Z"/></g></g></svg>