<svg xmlns="http://www.w3.org/2000/svg" viewBox="0 0 30.55 25.49"><defs><style>.cls-1{fill:red;}.cls-2{fill:#fff;}.cls-3{fill:#d0000b;}</style></defs><g id="Слой_2" data-name="Слой 2"><g id="Слой_1-2" data-name="Слой 1"><path class="cls-1" d="M5.9,21.94c0-3.55,0-7.09,0-10.64,0-.45-.1-.55-.54-.55H1.44c-.45,0-.54.1-.54.55V23.79c0,.71.41,1,1,.65l3.45-1.7A.79.79,0,0,0,5.9,21.94Z"/><path class="cls-2" d="M26.88,6.74a4.83,4.83,0,0,1,.63,3.69,5.22,5.22,0,0,1-.73,1.72.6.6,0,0,0-.06.48c.06.12.29.16.44.22a.54.54,0,0,0,.18,0l0,.06c.18-.07.44-.08.53-.21A6.15,6.15,0,0,0,27.9,6a.3.3,0,0,0-.21-.14,3.86,3.86,0,0,0-.68,0,.38.38,0,0,0-.29.6C26.76,6.57,26.83,6.65,26.88,6.74Z"/><path class="cls-2" d="M20.67,2.31V1.55H17.93v.76h2.74Z"/><path class="cls-3" d="M29.94,19.31H24.08a1.34,1.34,0,0,0-.35,0c-.22.07-.36.24-.29.45a.9.9,0,0,0,.34.39c.07.05.19,0,.29,0h5.61v4.37h-1c0-.3,0-.58,0-.85s-.17-.56-.44-.56-.44.19-.45.55,0,.57,0,.86H26.72c0-.31,0-.61,0-.9s-.19-.52-.46-.51-.42.19-.43.51v.9H24.7v-.32c0-.61,0-1.23,0-1.85a.42.42,0,0,0-.43-.44.44.44,0,0,0-.45.39,2.17,2.17,0,0,0,0,.36v1.85H22.69c0-.15,0-.28,0-.41s0-.28,0-.42c0-.37-.18-.58-.46-.58s-.42.21-.43.57,0,.56,0,.85H20.68v-.86c0-.35-.17-.55-.45-.56s-.44.21-.45.56v.86H18.66v-.3c0-.58,0-1.16,0-1.73,0-.38-.17-.59-.45-.59s-.44.23-.44.6,0,1,0,1.46v.56H16.66c0-.3,0-.58,0-.86s-.18-.55-.45-.55-.43.19-.44.55v.86H14.64a7.65,7.65,0,0,0,0-1,.58.58,0,0,0-.28-.4.48.48,0,0,0-.43.06.69.69,0,0,0-.16.43,8.42,8.42,0,0,0,0,.87H12.63v-.31c0-.6,0-1.2,0-1.8A.46.46,0,0,0,12.2,22a.47.47,0,0,0-.46.5c0,.34,0,.69,0,1v1.08H10.63c0-.3,0-.59,0-.87s-.19-.56-.47-.54-.42.2-.42.54,0,.57,0,.87H8.61v-.85c0-.36-.16-.56-.44-.57s-.45.21-.45.58,0,.56,0,.83H3.83c.63-.36,1.27-.69,1.91-1a1.66,1.66,0,0,0,1-1.71c0-.54,0-1.09,0-1.66h15c.1,0,.2,0,.3,0a.44.44,0,0,0,0-.88,1.82,1.82,0,0,0-.33,0h-15v-8A1.29,1.29,0,0,0,5.31,9.86H1.43A1.27,1.27,0,0,0,0,11.3V23.76a1.54,1.54,0,0,0,1.74,1.72H29.8a1,1,0,0,0,.24,0,5.38,5.38,0,0,0,.51-.2v-5.8A2.43,2.43,0,0,0,29.94,19.31Z"/><path class="cls-2" d="M.87,3.94A1.55,1.55,0,0,0,2.54,5.1H13.27c0,.34,0,.58.32.75a4,4,0,0,1,2.08,3.59A7.05,7.05,0,0,0,26,15.62,7,7,0,0,0,23.09,2.33c-.5,0-1,0-1.51,0V1.68a.94.94,0,0,0-1-1c-.84,0-1.68,0-2.51,0a.92.92,0,0,0-1,1c0,.21,0,.41,0,.65H5.64c-.47,0-.67.13-.68.44s.21.45.7.45h7.59v1H2.53a.71.71,0,0,1-.76-1H3.35c.48,0,.7-.15.7-.46s-.23-.43-.69-.43H1.72V2c0-.48,0-1,0-1.44S1.4-.1,1.09.05A.47.47,0,0,0,.82.54V3.62A1.25,1.25,0,0,0,.87,3.94ZM27,5.88a3.86,3.86,0,0,1,.68,0A.3.3,0,0,1,27.9,6a6.15,6.15,0,0,1,0,6.68c-.09.13-.35.14-.53.21l0-.06a.54.54,0,0,1-.18,0c-.15-.06-.38-.1-.44-.22a.6.6,0,0,1,.06-.48,5.22,5.22,0,0,0,.73-1.72,4.83,4.83,0,0,0-.63-3.69c-.05-.09-.12-.17-.16-.26A.38.38,0,0,1,27,5.88Zm-2.35.94a3.14,3.14,0,0,1,.1,5,4.19,4.19,0,0,1-.89.53.45.45,0,1,1-.35-.82,2.37,2.37,0,0,0,1.18-1,2.21,2.21,0,0,0-.08-2.53,2.17,2.17,0,0,0-2.32-1,2.21,2.21,0,0,0-1.83,1.78,2.3,2.3,0,0,0,1.3,2.59,1.69,1.69,0,0,1,.27.13.4.4,0,0,1,.21.55.44.44,0,0,1-.57.25,3.05,3.05,0,0,1-1.87-1.73,7.22,7.22,0,0,1-.3-1.06A3.22,3.22,0,0,1,21.29,6.5,3,3,0,0,1,24.66,6.82ZM17.93,1.55h2.74v.76H17.93Z"/></g></g></svg>