<svg xmlns="http://www.w3.org/2000/svg" viewBox="0 0 21.96 21.84"><defs><style>.cls-1{fill:#fff;}.cls-2{fill:#d0000b;}</style></defs><g id="Слой_2" data-name="Слой 2"><g id="Слой_1-2" data-name="Слой 1"><path class="cls-1" d="M15.43,1.69l.66.84,2.45,3.16a.39.39,0,0,0,.34.16c.37,0,.75,0,1.12,0a1.17,1.17,0,0,1,1.11.65,1.6,1.6,0,0,1,.17.64c0,1.17,0,2.35,0,3.52,0,.17-.07.18-.2.18H15.82a.45.45,0,0,0-.4.19c-.61.84-1.23,1.66-1.85,2.49a.22.22,0,0,0,0,.3l1.74,2.61a.28.28,0,0,0,.29.14h5.47c.17,0,.23,0,.23.22,0,1.08,0,2.16,0,3.25a3.63,3.63,0,0,1-.08.73,1.2,1.2,0,0,1-1.22,1H3.62l-2,0a2.92,2.92,0,0,1-.73-.1A1.17,1.17,0,0,1,0,20.49c0-.43,0-.86,0-1.29,0-3.94,0-7.88,0-11.83a1.8,1.8,0,0,1,.18-.94,1.29,1.29,0,0,1,1.19-.58H3.24a.28.28,0,0,0,.27-.14L5.72,2.52,7.33.21c.19-.27.2-.27.45-.06.61.5,1.2,1,1.8,1.51.24.2.29.21.51,0l1-1.07c.18-.2.18-.19.37,0l2.1,2a.23.23,0,0,0,.32,0l1.41-.83Zm1.79,4.14-.1-.19c-.63-.86-1.26-1.71-1.88-2.57C15.16,3,15.09,2.94,15,3l-1.8,1L10.52,5.63c-.08,0-.14.11-.21.16l0,0Zm-10.44,0,0,.07h.43a1.51,1.51,0,0,0,1.07-.26,4.29,4.29,0,0,1,.55-.31L12.7,3.2c.2-.1.21-.16,0-.32-.44-.39-.89-.78-1.35-1.16a.18.18,0,0,0-.17,0l-.5.44L7.22,5.34C7.07,5.48,6.92,5.63,6.78,5.78Zm-2.23,0,0,0c.27,0,.55.09.8-.13s.72-.64,1.08-1L8.47,3c.26-.22.52-.44.77-.67s.13-.16,0-.26-.32-.2-.47-.31-.46-.3-.7-.44-.2-.05-.27.07l-.28.41L4.73,5.51Z"/><path class="cls-2" d="M18.88,15.77H16.12a.47.47,0,0,1-.46-.24c-.35-.53-.72-1-1.09-1.56a.35.35,0,0,1,0-.48c.42-.54.81-1.09,1.23-1.63a.41.41,0,0,1,.27-.1h5.68c.15,0,.2.05.2.2q0,1.8,0,3.6c0,.16-.05.2-.21.2Zm-.53-2a1.27,1.27,0,0,0-1.24-1.35,1.24,1.24,0,0,0-1.34,1.28A1.28,1.28,0,0,0,17,15.05,1.26,1.26,0,0,0,18.35,13.79Z"/></g></g></svg>