<svg xmlns="http://www.w3.org/2000/svg" viewBox="0 0 25.56 26.3"><defs><style>.cls-1{fill:#d0000b;}</style></defs><g id="Слой_2" data-name="Слой 2"><g id="logo"><path class="cls-1" d="M22.12,3.44A11.69,11.69,0,0,0,13.8,0a.93.93,0,1,0,0,1.86,9.9,9.9,0,0,1,9.9,9.9.93.93,0,1,0,1.86,0A11.71,11.71,0,0,0,22.12,3.44Z"/><path class="cls-1" d="M18.28,11.76a.94.94,0,0,0,1.87,0A6.35,6.35,0,0,0,13.8,5.42a.93.93,0,0,0,0,1.86A4.49,4.49,0,0,1,18.28,11.76Z"/><path class="cls-1" d="M16.22,16.51A2.84,2.84,0,0,0,13.73,18a.93.93,0,0,0,1.54,1.06c.41-.6.6-.7.85-.69a12.23,12.23,0,0,1,4.3,3.15,1,1,0,0,1,0,.69,3.22,3.22,0,0,1-1.6,2,3,3,0,0,1-2.39-.08,26.27,26.27,0,0,1-8.64-5.63h0A26.25,26.25,0,0,1,2.16,9.88a3,3,0,0,1-.08-2.4,3.21,3.21,0,0,1,2-1.59.94.94,0,0,1,.68,0,12,12,0,0,1,3.15,4.29c0,.26-.08.45-.68.86a.93.93,0,0,0,1,1.54,2.8,2.8,0,0,0,1.49-2.5c-.08-1.49-3-5.43-4.36-5.94a2.81,2.81,0,0,0-1.92,0A5,5,0,0,0,.38,6.71a4.83,4.83,0,0,0,0,3.87,28.17,28.17,0,0,0,6,9.25l0,0a28.13,28.13,0,0,0,9.23,6,5.6,5.6,0,0,0,2.09.44,4.21,4.21,0,0,0,1.79-.39,5,5,0,0,0,2.59-3.11,2.87,2.87,0,0,0,0-1.92C21.66,19.49,17.71,16.59,16.22,16.51Z"/></g></g></svg>