<svg xmlns="http://www.w3.org/2000/svg" viewBox="0 0 24.87 30.42"><defs><style>.cls-1{fill:#fff;}.cls-2{fill:#d0000b;}</style></defs><g id="Слой_2" data-name="Слой 2"><g id="Слой_1-2" data-name="Слой 1"><path class="cls-1" d="M13.7,27.7v1.57H2.34A2.27,2.27,0,0,1,0,27V6.2C0,4.91,0,3.61,0,2.31A2.26,2.26,0,0,1,2.24,0C4.46,0,6.68,0,8.91,0H22.52a2.28,2.28,0,0,1,2.29,1.77,3.47,3.47,0,0,1,.06.64V27a2.26,2.26,0,0,1-2.22,2.31c-.54,0-1.08,0-1.63,0V27.7h.64a1.49,1.49,0,0,0,1.48-1.51c0-1,0-2.06,0-3.08V8.45c0-1.7,0-3.39,0-5.09a1.93,1.93,0,0,0-.23-1,1.44,1.44,0,0,0-1.28-.72c-1.75,0-3.5,0-5.26,0H6.24c-.94,0-1.88,0-2.82,0A1.54,1.54,0,0,0,1.73,3.23v22.9A1.5,1.5,0,0,0,3,27.67a3.33,3.33,0,0,0,.63,0H13.7Z"/><path class="cls-2" d="M14.9,23.29l-2.15.14L14,21.65,12,20.7,14,19.77,12.79,18l2.14.16L14.8,16l1.77,1.22,1-1.93.93,2L20.25,16l-.17,2.15L22.23,18,21,19.82l1.93.95L21,21.7l1.2,1.8-2.15-.17.13,2.15L18.4,24.26l-.95,1.93-.93-2-1.79,1.2Zm1.93-1.64c-.26-.3-.49-.57-.74-.84a.8.8,0,0,0-1.14-.1.81.81,0,0,0-.11,1.16c.46.55.92,1.08,1.4,1.61a.81.81,0,0,0,1.24,0l.61-.72,2.43-2.88a.83.83,0,0,0-.08-1.18.84.84,0,0,0-1.19.12l-1.17,1.4Z"/><path class="cls-1" d="M21.1,7.8V9.67H3.82V7.8Z"/><path class="cls-1" d="M21.1,3.87V5.73H3.81V3.87Z"/><path class="cls-1" d="M21.09,11.73V13.6H3.81V11.73Z"/><path class="cls-2" d="M17.45,28.12l-2.72,2.3v-.63c0-1.24,0-2.47,0-3.71a.27.27,0,0,1,.11-.21l1.61-.81,1,1.83c.31-.56.62-1.09.91-1.62.09-.16.16-.2.33-.11.44.25.9.46,1.35.69a.27.27,0,0,1,.14.19c0,1.43,0,2.86,0,4.3a.32.32,0,0,1,0,.07Z"/><path class="cls-1" d="M12,15.67v1.87H3.81V15.67Z"/></g></g></svg>